<svg width="344" height="294" viewBox="0 0 344 294" fill="none" xmlns="http://www.w3.org/2000/svg">
<g filter="url(#filter0_d)">
<rect x="4" width="336" height="286" rx="26" fill="#2D9E05"/>
</g>
<g filter="url(#filter1_d)">
<path d="M127.759 111.722V126H119.409V85.4766H135.218C138.261 85.4766 140.933 86.0332 143.233 87.1465C145.553 88.2598 147.334 89.8462 148.577 91.9058C149.82 93.9468 150.442 96.2754 150.442 98.8916C150.442 102.862 149.078 105.998 146.351 108.299C143.642 110.581 139.884 111.722 135.079 111.722H127.759ZM127.759 104.959H135.218C137.426 104.959 139.105 104.439 140.255 103.4C141.424 102.361 142.009 100.877 142.009 98.9473C142.009 96.9619 141.424 95.3569 140.255 94.1323C139.086 92.9077 137.472 92.2769 135.413 92.2397H127.759V104.959ZM198.563 103.734L206.997 85.4766H216.125L202.822 111.305V126H194.333V111.305L181.029 85.4766H190.186L198.563 103.734ZM106.078 182.953L115.262 152.477H124.558L110.447 193H101.736L87.6807 152.477H96.9487L106.078 182.953ZM165.137 186.292H182.866V193H156.788V152.477H165.137V186.292ZM240.451 175.438H224.419V186.292H243.234V193H216.07V152.477H243.178V159.24H224.419V168.897H240.451V175.438Z" fill="#43E80A"/>
<path d="M127.759 111.722V110.722H126.759V111.722H127.759ZM127.759 126V127H128.759V126H127.759ZM119.409 126H118.409V127H119.409V126ZM119.409 85.4766V84.4766H118.409V85.4766H119.409ZM143.233 87.1465L142.798 88.0466L142.801 88.048L143.233 87.1465ZM148.577 91.9058L147.721 92.4225L147.723 92.426L148.577 91.9058ZM146.351 108.299L146.995 109.064L146.995 109.063L146.351 108.299ZM127.759 104.959H126.759V105.959H127.759V104.959ZM140.255 103.4L139.591 102.653L139.585 102.658L140.255 103.4ZM135.413 92.2397L135.431 91.2399L135.422 91.2397H135.413V92.2397ZM127.759 92.2397V91.2397H126.759V92.2397H127.759ZM126.759 111.722V126H128.759V111.722H126.759ZM127.759 125H119.409V127H127.759V125ZM120.409 126V85.4766H118.409V126H120.409ZM119.409 86.4766H135.218V84.4766H119.409V86.4766ZM135.218 86.4766C138.138 86.4766 140.656 87.0104 142.798 88.0466L143.669 86.2463C141.209 85.056 138.383 84.4766 135.218 84.4766V86.4766ZM142.801 88.048C144.957 89.0831 146.586 90.5414 147.721 92.4225L149.433 91.389C148.082 89.1509 146.148 87.4364 143.666 86.245L142.801 88.048ZM147.723 92.426C148.862 94.2956 149.442 96.4409 149.442 98.8916H151.442C151.442 96.1099 150.779 93.598 149.431 91.3856L147.723 92.426ZM149.442 98.8916C149.442 102.605 148.181 105.447 145.706 107.534L146.995 109.063C149.975 106.55 151.442 103.12 151.442 98.8916H149.442ZM145.706 107.534C143.233 109.618 139.733 110.722 135.079 110.722V112.722C140.036 112.722 144.05 111.544 146.995 109.064L145.706 107.534ZM135.079 110.722H127.759V112.722H135.079V110.722ZM127.759 105.959H135.218V103.959H127.759V105.959ZM135.218 105.959C137.569 105.959 139.526 105.406 140.926 104.142L139.585 102.658C138.683 103.473 137.283 103.959 135.218 103.959V105.959ZM140.92 104.148C142.351 102.876 143.009 101.09 143.009 98.9473H141.009C141.009 100.664 140.498 101.847 139.591 102.653L140.92 104.148ZM143.009 98.9473C143.009 96.7523 142.356 94.8842 140.979 93.4418L139.532 94.8228C140.493 95.8296 141.009 97.1715 141.009 98.9473H143.009ZM140.979 93.4418C139.587 91.9836 137.695 91.2807 135.431 91.2399L135.395 93.2396C137.249 93.273 138.586 93.8319 139.532 94.8228L140.979 93.4418ZM135.413 91.2397H127.759V93.2397H135.413V91.2397ZM126.759 92.2397V104.959H128.759V92.2397H126.759ZM198.563 103.734L197.655 104.151L198.56 106.126L199.471 104.154L198.563 103.734ZM206.997 85.4766V84.4766H206.357L206.089 85.0572L206.997 85.4766ZM216.125 85.4766L217.014 85.9345L217.765 84.4766H216.125V85.4766ZM202.822 111.305L201.933 110.847L201.822 111.062V111.305H202.822ZM202.822 126V127H203.822V126H202.822ZM194.333 126H193.333V127H194.333V126ZM194.333 111.305H195.333V111.062L195.222 110.847L194.333 111.305ZM181.029 85.4766V84.4766H179.389L180.14 85.9345L181.029 85.4766ZM190.186 85.4766L191.095 85.0595L190.827 84.4766H190.186V85.4766ZM199.471 104.154L207.904 85.8959L206.089 85.0572L197.656 103.315L199.471 104.154ZM206.997 86.4766H216.125V84.4766H206.997V86.4766ZM215.236 85.0187L201.933 110.847L203.711 111.763L217.014 85.9345L215.236 85.0187ZM201.822 111.305V126H203.822V111.305H201.822ZM202.822 125H194.333V127H202.822V125ZM195.333 126V111.305H193.333V126H195.333ZM195.222 110.847L181.918 85.0187L180.14 85.9345L193.444 111.763L195.222 110.847ZM181.029 86.4766H190.186V84.4766H181.029V86.4766ZM189.277 85.8936L197.655 104.151L199.472 103.317L191.095 85.0595L189.277 85.8936ZM106.078 182.953L105.12 183.24L106.075 186.428L107.035 183.241L106.078 182.953ZM115.262 152.477V151.477H114.519L114.305 152.188L115.262 152.477ZM124.558 152.477L125.502 152.805L125.965 151.477H124.558V152.477ZM110.447 193V194H111.158L111.392 193.329L110.447 193ZM101.736 193L100.791 193.328L101.024 194H101.736V193ZM87.6807 152.477V151.477H86.2754L86.7359 152.804L87.6807 152.477ZM96.9487 152.477L97.9067 152.19L97.6931 151.477H96.9487V152.477ZM107.035 183.241L116.22 152.765L114.305 152.188L105.12 182.664L107.035 183.241ZM115.262 153.477H124.558V151.477H115.262V153.477ZM123.614 152.148L109.503 192.671L111.392 193.329L125.502 152.805L123.614 152.148ZM110.447 192H101.736V194H110.447V192ZM102.681 192.672L88.6254 152.149L86.7359 152.804L100.791 193.328L102.681 192.672ZM87.6807 153.477H96.9487V151.477H87.6807V153.477ZM95.9908 152.764L105.12 183.24L107.036 182.666L97.9067 152.19L95.9908 152.764ZM165.137 186.292H164.137V187.292H165.137V186.292ZM182.866 186.292H183.866V185.292H182.866V186.292ZM182.866 193V194H183.866V193H182.866ZM156.788 193H155.788V194H156.788V193ZM156.788 152.477V151.477H155.788V152.477H156.788ZM165.137 152.477H166.137V151.477H165.137V152.477ZM165.137 187.292H182.866V185.292H165.137V187.292ZM181.866 186.292V193H183.866V186.292H181.866ZM182.866 192H156.788V194H182.866V192ZM157.788 193V152.477H155.788V193H157.788ZM156.788 153.477H165.137V151.477H156.788V153.477ZM164.137 152.477V186.292H166.137V152.477H164.137ZM240.451 175.438V176.438H241.451V175.438H240.451ZM224.419 175.438V174.438H223.419V175.438H224.419ZM224.419 186.292H223.419V187.292H224.419V186.292ZM243.234 186.292H244.234V185.292H243.234V186.292ZM243.234 193V194H244.234V193H243.234ZM216.07 193H215.07V194H216.07V193ZM216.07 152.477V151.477H215.07V152.477H216.07ZM243.178 152.477H244.178V151.477H243.178V152.477ZM243.178 159.24V160.24H244.178V159.24H243.178ZM224.419 159.24V158.24H223.419V159.24H224.419ZM224.419 168.897H223.419V169.897H224.419V168.897ZM240.451 168.897H241.451V167.897H240.451V168.897ZM240.451 174.438H224.419V176.438H240.451V174.438ZM223.419 175.438V186.292H225.419V175.438H223.419ZM224.419 187.292H243.234V185.292H224.419V187.292ZM242.234 186.292V193H244.234V186.292H242.234ZM243.234 192H216.07V194H243.234V192ZM217.07 193V152.477H215.07V193H217.07ZM216.07 153.477H243.178V151.477H216.07V153.477ZM242.178 152.477V159.24H244.178V152.477H242.178ZM243.178 158.24H224.419V160.24H243.178V158.24ZM223.419 159.24V168.897H225.419V159.24H223.419ZM224.419 169.897H240.451V167.897H224.419V169.897ZM239.451 168.897V175.438H241.451V168.897H239.451Z" fill="black"/>
</g>
<g filter="url(#filter2_d)">
<path d="M171.508 114.287H161.492L159.587 120H153.513L163.834 92.2734H169.128L179.506 120H173.432L171.508 114.287ZM163.034 109.66H169.966L166.481 99.2812L163.034 109.66Z" fill="#F4600D"/>
<path d="M171.508 114.287L172.456 113.968L172.227 113.287H171.508V114.287ZM161.492 114.287V113.287H160.771L160.543 113.971L161.492 114.287ZM159.587 120V121H160.308L160.536 120.316L159.587 120ZM153.513 120L152.576 119.651L152.073 121H153.513V120ZM163.834 92.2734V91.2734H163.139L162.897 91.9246L163.834 92.2734ZM169.128 92.2734L170.064 91.9229L169.821 91.2734H169.128V92.2734ZM179.506 120V121H180.948L180.443 119.649L179.506 120ZM173.432 120L172.484 120.319L172.713 121H173.432V120ZM163.034 109.66L162.085 109.344L161.648 110.66H163.034V109.66ZM169.966 109.66V110.66H171.356L170.914 109.341L169.966 109.66ZM166.481 99.2812L167.429 98.9629L166.476 96.1242L165.532 98.9661L166.481 99.2812ZM171.508 113.287H161.492V115.287H171.508V113.287ZM160.543 113.971L158.639 119.684L160.536 120.316L162.44 114.603L160.543 113.971ZM159.587 119H153.513V121H159.587V119ZM154.45 120.349L164.771 92.6223L162.897 91.9246L152.576 119.651L154.45 120.349ZM163.834 93.2734H169.128V91.2734H163.834V93.2734ZM168.191 92.624L178.57 120.351L180.443 119.649L170.064 91.9229L168.191 92.624ZM179.506 119H173.432V121H179.506V119ZM174.379 119.681L172.456 113.968L170.561 114.606L172.484 120.319L174.379 119.681ZM163.034 110.66H169.966V108.66H163.034V110.66ZM170.914 109.341L167.429 98.9629L165.533 99.5996L169.018 109.978L170.914 109.341ZM165.532 98.9661L162.085 109.344L163.983 109.975L167.43 99.5964L165.532 98.9661Z" fill="#386712"/>
</g>
<g filter="url(#filter3_d)">
<path d="M141.508 182.287H131.492L129.587 188H123.513L133.834 160.273H139.128L149.506 188H143.432L141.508 182.287ZM133.034 177.66H139.966L136.481 167.281L133.034 177.66Z" fill="#F4600D"/>
<path d="M141.508 182.287L142.456 181.968L142.227 181.287H141.508V182.287ZM131.492 182.287V181.287H130.771L130.543 181.971L131.492 182.287ZM129.587 188V189H130.308L130.536 188.316L129.587 188ZM123.513 188L122.576 187.651L122.073 189H123.513V188ZM133.834 160.273V159.273H133.139L132.897 159.925L133.834 160.273ZM139.128 160.273L140.064 159.923L139.821 159.273H139.128V160.273ZM149.506 188V189H150.948L150.443 187.649L149.506 188ZM143.432 188L142.484 188.319L142.713 189H143.432V188ZM133.034 177.66L132.085 177.344L131.648 178.66H133.034V177.66ZM139.966 177.66V178.66H141.356L140.914 177.341L139.966 177.66ZM136.481 167.281L137.429 166.963L136.476 164.124L135.532 166.966L136.481 167.281ZM141.508 181.287H131.492V183.287H141.508V181.287ZM130.543 181.971L128.639 187.684L130.536 188.316L132.44 182.603L130.543 181.971ZM129.587 187H123.513V189H129.587V187ZM124.45 188.349L134.771 160.622L132.897 159.925L122.576 187.651L124.45 188.349ZM133.834 161.273H139.128V159.273H133.834V161.273ZM138.191 160.624L148.57 188.351L150.443 187.649L140.064 159.923L138.191 160.624ZM149.506 187H143.432V189H149.506V187ZM144.379 187.681L142.456 181.968L140.561 182.606L142.484 188.319L144.379 187.681ZM133.034 178.66H139.966V176.66H133.034V178.66ZM140.914 177.341L137.429 166.963L135.533 167.6L139.018 177.978L140.914 177.341ZM135.532 166.966L132.085 177.344L133.983 177.975L137.43 167.596L135.532 166.966Z" fill="#386712"/>
</g>
<g filter="url(#filter4_d)">
<path d="M208.626 160.273V178.536C208.626 181.57 207.674 183.969 205.77 185.734C203.878 187.499 201.288 188.381 198 188.381C194.763 188.381 192.192 187.524 190.288 185.81C188.383 184.096 187.412 181.741 187.374 178.745V160.273H193.087V178.574C193.087 180.389 193.519 181.716 194.382 182.554C195.258 183.379 196.464 183.792 198 183.792C201.212 183.792 202.843 182.103 202.894 178.726V160.273H208.626Z" fill="#F4600D"/>
<path d="M208.626 160.273H209.626V159.273H208.626V160.273ZM205.77 185.734L205.09 185L205.087 185.003L205.77 185.734ZM187.374 178.745H186.374L186.374 178.758L187.374 178.745ZM187.374 160.273V159.273H186.374V160.273H187.374ZM193.087 160.273H194.087V159.273H193.087V160.273ZM194.382 182.554L193.685 183.271L193.691 183.276L193.696 183.282L194.382 182.554ZM202.894 178.726L203.894 178.741L203.894 178.734V178.726H202.894ZM202.894 160.273V159.273H201.894V160.273H202.894ZM207.626 160.273V178.536H209.626V160.273H207.626ZM207.626 178.536C207.626 181.343 206.755 183.457 205.09 185L206.449 186.467C208.593 184.481 209.626 181.797 209.626 178.536H207.626ZM205.087 185.003C203.427 186.551 201.106 187.381 198 187.381V189.381C201.47 189.381 204.329 188.446 206.452 186.465L205.087 185.003ZM198 187.381C194.942 187.381 192.633 186.575 190.957 185.067L189.619 186.553C191.751 188.473 194.583 189.381 198 189.381V187.381ZM190.957 185.067C189.295 183.572 188.409 181.501 188.374 178.732L186.374 178.758C186.415 181.981 187.471 184.621 189.619 186.553L190.957 185.067ZM188.374 178.745V160.273H186.374V178.745H188.374ZM187.374 161.273H193.087V159.273H187.374V161.273ZM192.087 160.273V178.574H194.087V160.273H192.087ZM192.087 178.574C192.087 180.523 192.548 182.168 193.685 183.271L195.078 181.836C194.489 181.264 194.087 180.255 194.087 178.574H192.087ZM193.696 183.282C194.805 184.326 196.282 184.792 198 184.792V182.792C196.646 182.792 195.711 182.432 195.068 181.826L193.696 183.282ZM198 184.792C199.774 184.792 201.286 184.322 202.352 183.22C203.408 182.126 203.866 180.573 203.894 178.741L201.894 178.711C201.871 180.256 201.488 181.235 200.913 181.83C200.347 182.416 199.437 182.792 198 182.792V184.792ZM203.894 178.726V160.273H201.894V178.726H203.894ZM202.894 161.273H208.626V159.273H202.894V161.273Z" fill="#386712"/>
</g>
<path d="M198.5 102.5L190.5 85H194L198.5 95L202.706 85H206L198.5 102.5Z" fill="#E06B16" stroke="#CF4D03"/>
<g filter="url(#filter5_d)">
<path d="M127 92.5324V86C127 84.8954 127.895 84 129 84H134C135.105 84 136 84.8954 136 86V92.5324C136 93.0909 135.683 93.601 135.182 93.8483C134.98 93.9481 134.758 94 134.532 94H128.468C128.242 94 128.02 93.9481 127.818 93.8483C127.317 93.601 127 93.0909 127 92.5324Z" fill="#F4600D"/>
<path d="M127 92.5324V86C127 84.8954 127.895 84 129 84H134C135.105 84 136 84.8954 136 86V92.5324C136 93.0909 135.683 93.601 135.182 93.8483C134.98 93.9481 134.758 94 134.532 94H128.468C128.242 94 128.02 93.9481 127.818 93.8483C127.317 93.601 127 93.0909 127 92.5324Z" stroke="#DB560C"/>
</g>
<defs>
<filter id="filter0_d" x="0" y="0" width="344" height="294" filterUnits="userSpaceOnUse" color-interpolation-filters="sRGB">
<feFlood flood-opacity="0" result="BackgroundImageFix"/>
<feColorMatrix in="SourceAlpha" type="matrix" values="0 0 0 0 0 0 0 0 0 0 0 0 0 0 0 0 0 0 127 0" result="hardAlpha"/>
<feOffset dy="4"/>
<feGaussianBlur stdDeviation="2"/>
<feComposite in2="hardAlpha" operator="out"/>
<feColorMatrix type="matrix" values="0 0 0 0 0 0 0 0 0 0 0 0 0 0 0 0 0 0 0.25 0"/>
<feBlend mode="normal" in2="BackgroundImageFix" result="effect1_dropShadow"/>
<feBlend mode="normal" in="SourceGraphic" in2="effect1_dropShadow" result="shape"/>
</filter>
<filter id="filter1_d" x="82.2754" y="84.4766" width="165.959" height="117.523" filterUnits="userSpaceOnUse" color-interpolation-filters="sRGB">
<feFlood flood-opacity="0" result="BackgroundImageFix"/>
<feColorMatrix in="SourceAlpha" type="matrix" values="0 0 0 0 0 0 0 0 0 0 0 0 0 0 0 0 0 0 127 0" result="hardAlpha"/>
<feOffset dy="4"/>
<feGaussianBlur stdDeviation="2"/>
<feComposite in2="hardAlpha" operator="out"/>
<feColorMatrix type="matrix" values="0 0 0 0 0 0 0 0 0 0 0 0 0 0 0 0 0 0 0.25 0"/>
<feBlend mode="normal" in2="BackgroundImageFix" result="effect1_dropShadow"/>
<feBlend mode="normal" in="SourceGraphic" in2="effect1_dropShadow" result="shape"/>
</filter>
<filter id="filter2_d" x="148.073" y="91.2734" width="36.875" height="37.7266" filterUnits="userSpaceOnUse" color-interpolation-filters="sRGB">
<feFlood flood-opacity="0" result="BackgroundImageFix"/>
<feColorMatrix in="SourceAlpha" type="matrix" values="0 0 0 0 0 0 0 0 0 0 0 0 0 0 0 0 0 0 127 0" result="hardAlpha"/>
<feOffset dy="4"/>
<feGaussianBlur stdDeviation="2"/>
<feComposite in2="hardAlpha" operator="out"/>
<feColorMatrix type="matrix" values="0 0 0 0 0 0 0 0 0 0 0 0 0 0 0 0 0 0 0.25 0"/>
<feBlend mode="normal" in2="BackgroundImageFix" result="effect1_dropShadow"/>
<feBlend mode="normal" in="SourceGraphic" in2="effect1_dropShadow" result="shape"/>
</filter>
<filter id="filter3_d" x="118.073" y="159.273" width="36.875" height="37.7266" filterUnits="userSpaceOnUse" color-interpolation-filters="sRGB">
<feFlood flood-opacity="0" result="BackgroundImageFix"/>
<feColorMatrix in="SourceAlpha" type="matrix" values="0 0 0 0 0 0 0 0 0 0 0 0 0 0 0 0 0 0 127 0" result="hardAlpha"/>
<feOffset dy="4"/>
<feGaussianBlur stdDeviation="2"/>
<feComposite in2="hardAlpha" operator="out"/>
<feColorMatrix type="matrix" values="0 0 0 0 0 0 0 0 0 0 0 0 0 0 0 0 0 0 0.25 0"/>
<feBlend mode="normal" in2="BackgroundImageFix" result="effect1_dropShadow"/>
<feBlend mode="normal" in="SourceGraphic" in2="effect1_dropShadow" result="shape"/>
</filter>
<filter id="filter4_d" x="182.374" y="159.273" width="31.252" height="38.1074" filterUnits="userSpaceOnUse" color-interpolation-filters="sRGB">
<feFlood flood-opacity="0" result="BackgroundImageFix"/>
<feColorMatrix in="SourceAlpha" type="matrix" values="0 0 0 0 0 0 0 0 0 0 0 0 0 0 0 0 0 0 127 0" result="hardAlpha"/>
<feOffset dy="4"/>
<feGaussianBlur stdDeviation="2"/>
<feComposite in2="hardAlpha" operator="out"/>
<feColorMatrix type="matrix" values="0 0 0 0 0 0 0 0 0 0 0 0 0 0 0 0 0 0 0.25 0"/>
<feBlend mode="normal" in2="BackgroundImageFix" result="effect1_dropShadow"/>
<feBlend mode="normal" in="SourceGraphic" in2="effect1_dropShadow" result="shape"/>
</filter>
<filter id="filter5_d" x="122.5" y="83.5" width="18" height="19" filterUnits="userSpaceOnUse" color-interpolation-filters="sRGB">
<feFlood flood-opacity="0" result="BackgroundImageFix"/>
<feColorMatrix in="SourceAlpha" type="matrix" values="0 0 0 0 0 0 0 0 0 0 0 0 0 0 0 0 0 0 127 0" result="hardAlpha"/>
<feOffset dy="4"/>
<feGaussianBlur stdDeviation="2"/>
<feComposite in2="hardAlpha" operator="out"/>
<feColorMatrix type="matrix" values="0 0 0 0 0 0 0 0 0 0 0 0 0 0 0 0 0 0 0.25 0"/>
<feBlend mode="normal" in2="BackgroundImageFix" result="effect1_dropShadow"/>
<feBlend mode="normal" in="SourceGraphic" in2="effect1_dropShadow" result="shape"/>
</filter>
</defs>
</svg>
