<svg width="431" height="289" viewBox="0 0 431 289" fill="none" xmlns="http://www.w3.org/2000/svg">
<path d="M106.234 17.7523C106.105 8.91664 113.163 1.64926 121.998 1.5201L209.986 0.233864C218.822 0.104702 226.089 7.16268 226.218 15.9983L226.416 29.5063C226.545 38.342 219.487 45.6093 210.651 45.7385L122.663 47.0247C113.828 47.1539 106.56 40.0959 106.431 31.2603L106.234 17.7523Z" fill="#3AC609" fill-opacity="0.39"/>
<rect x="196.369" y="35.3665" width="25.4539" height="8.50177" rx="4.25089" transform="rotate(-0.83751 196.369 35.3665)" fill="#F4600D" fill-opacity="0.63"/>
<rect x="196.876" y="35.8591" width="24.4539" height="7.50177" rx="3.75089" transform="rotate(-0.83751 196.876 35.8591)" stroke="#F4600D" stroke-opacity="0.5"/>
<path d="M210.141 39.7355C210.147 40.1554 210.078 40.5246 209.934 40.8431C209.791 41.1617 209.581 41.4089 209.306 41.5848C209.034 41.7607 208.718 41.8512 208.361 41.8565C208.008 41.8616 207.691 41.7813 207.411 41.6154C207.131 41.4496 206.913 41.2106 206.756 40.8984C206.599 40.5842 206.517 40.2221 206.509 39.812L206.506 39.6011C206.5 39.1812 206.569 38.811 206.715 38.4905C206.863 38.168 207.073 37.9198 207.346 37.7459C207.621 37.5699 207.936 37.4794 208.291 37.4742C208.647 37.469 208.963 37.5503 209.241 37.7181C209.521 37.884 209.738 38.126 209.893 38.444C210.05 38.7601 210.132 39.1272 210.138 39.5451L210.141 39.7355ZM209.247 39.5552C209.241 39.1079 209.156 38.7693 208.992 38.5393C208.829 38.3092 208.599 38.1963 208.302 38.2007C208.007 38.205 207.781 38.3235 207.624 38.5563C207.467 38.7872 207.391 39.1242 207.396 39.5676L207.399 39.7756C207.405 40.2111 207.49 40.5478 207.654 40.7856C207.818 41.0235 208.05 41.1402 208.351 41.1358C208.645 41.1315 208.87 41.013 209.025 40.7802C209.18 40.5455 209.255 40.2065 209.25 39.7632L209.247 39.5552ZM214.28 40.0002L213.83 40.499L213.848 41.7176L212.969 41.7305L212.907 37.4653L213.785 37.4525L213.814 39.3859L214.193 38.85L215.259 37.4309L216.34 37.4151L214.853 39.3326L216.446 41.6797L215.4 41.695L214.28 40.0002Z" fill="black" fill-opacity="0.54"/>
<rect x="110.337" y="14.117" width="111.166" height="2.00042" rx="1" transform="rotate(-0.83751 110.337 14.117)" fill="#3A3737"/>
<path d="M117.134 25.5588L116.046 25.5747L116.089 28.5358L115.357 28.5465L115.313 25.5854L114.239 25.6011L114.23 25.0079L117.126 24.9656L117.134 25.5588ZM120.694 27.1671L120.111 27.1756L120.13 28.4768L119.397 28.4875L119.345 24.9332L120.666 24.9139C121.086 24.9077 121.411 24.9966 121.642 25.1804C121.872 25.3642 121.99 25.627 121.995 25.9688C121.999 26.2113 121.949 26.4146 121.845 26.5789C121.743 26.7416 121.587 26.8725 121.375 26.9716L122.165 28.4128L122.166 28.447L121.38 28.4585L120.694 27.1671ZM120.102 26.5824L120.693 26.5738C120.877 26.5711 121.018 26.5227 121.118 26.4284C121.217 26.3325 121.266 26.2024 121.264 26.0381C121.261 25.8704 121.211 25.7393 121.114 25.6447C121.018 25.5501 120.872 25.5042 120.675 25.5071L120.086 25.5157L120.102 26.5824ZM126.386 27.6528L125.102 27.6716L124.869 28.4075L124.09 28.4189L125.361 24.8452L126.04 24.8353L127.422 28.3702L126.643 28.3816L126.386 27.6528ZM125.291 27.0755L126.18 27.0625L125.713 25.7386L125.291 27.0755ZM132.444 28.2968L131.712 28.3075L130.252 25.9897L130.286 28.3283L129.554 28.339L129.502 24.7847L130.234 24.774L131.697 27.0966L131.662 24.7531L132.392 24.7424L132.444 28.2968ZM136.713 27.3016C136.711 27.1633 136.661 27.0582 136.562 26.9864C136.463 26.913 136.286 26.8374 136.031 26.7598C135.776 26.6805 135.574 26.6021 135.425 26.5245C135.018 26.3123 134.812 26.0215 134.806 25.6521C134.804 25.46 134.855 25.2884 134.96 25.1371C135.067 24.9841 135.221 24.8639 135.421 24.7763C135.623 24.6887 135.85 24.6431 136.103 24.6394C136.357 24.6357 136.584 24.6787 136.783 24.7686C136.983 24.8568 137.139 24.984 137.25 25.15C137.364 25.316 137.422 25.5056 137.425 25.7188L136.692 25.7295C136.69 25.5668 136.637 25.4414 136.533 25.3534C136.429 25.2637 136.285 25.2203 136.099 25.223C135.92 25.2256 135.781 25.2659 135.683 25.3438C135.585 25.4201 135.537 25.5201 135.539 25.6438C135.54 25.7594 135.6 25.8553 135.716 25.9318C135.835 26.0082 136.007 26.0789 136.235 26.144C136.653 26.2632 136.959 26.4142 137.152 26.5969C137.345 26.7796 137.444 27.0093 137.448 27.286C137.452 27.5936 137.339 27.837 137.109 28.0161C136.879 28.1937 136.567 28.2853 136.173 28.2911C135.9 28.2951 135.65 28.2491 135.424 28.1531C135.198 28.0555 135.024 27.9205 134.903 27.7481C134.783 27.5756 134.722 27.3747 134.718 27.1452L135.453 27.1345C135.459 27.5267 135.696 27.7194 136.165 27.7125C136.339 27.71 136.474 27.673 136.571 27.6016C136.667 27.5286 136.715 27.4286 136.713 27.3016ZM141.876 26.7061L140.47 26.7266L140.492 28.1791L139.759 28.1898L139.707 24.6355L142.021 24.6017L142.03 25.1949L140.448 25.218L140.462 26.1359L141.868 26.1153L141.876 26.7061ZM146.414 26.5518L145.008 26.5724L145.022 27.5244L146.672 27.5003L146.681 28.0886L144.298 28.1235L144.246 24.5692L146.624 24.5344L146.632 25.1276L144.987 25.1517L144.999 25.9987L146.406 25.9782L146.414 26.5518ZM150.207 26.7357L149.623 26.7442L149.642 28.0453L148.91 28.056L148.858 24.5017L150.179 24.4824C150.599 24.4763 150.924 24.5651 151.154 24.749C151.385 24.9328 151.503 25.1956 151.508 25.5373C151.511 25.7798 151.461 25.9832 151.358 26.1475C151.256 26.3101 151.099 26.441 150.888 26.5402L151.678 27.9814L151.678 28.0156L150.892 28.0271L150.207 26.7357ZM149.615 26.151L150.205 26.1424C150.389 26.1397 150.531 26.0912 150.631 25.997C150.73 25.9011 150.779 25.771 150.776 25.6066C150.774 25.439 150.724 25.3079 150.626 25.2133C150.531 25.1186 150.384 25.0728 150.187 25.0756L149.599 25.0842L149.615 26.151ZM158.777 26.9791C158.775 26.8408 158.725 26.7357 158.626 26.6639C158.527 26.5905 158.35 26.5149 158.095 26.4372C157.84 26.358 157.638 26.2795 157.489 26.2019C157.082 25.9898 156.876 25.699 156.87 25.3295C156.868 25.1375 156.919 24.9658 157.024 24.8145C157.131 24.6616 157.285 24.5413 157.485 24.4538C157.687 24.3662 157.915 24.3205 158.167 24.3168C158.421 24.3131 158.648 24.3562 158.847 24.4461C159.047 24.5343 159.203 24.6614 159.315 24.8275C159.428 24.9935 159.486 25.1831 159.489 25.3963L158.757 25.407C158.754 25.2442 158.701 25.1188 158.597 25.0308C158.493 24.9412 158.349 24.8977 158.163 24.9004C157.984 24.9031 157.846 24.9433 157.747 25.0213C157.649 25.0976 157.601 25.1976 157.603 25.3213C157.604 25.4368 157.664 25.5328 157.78 25.6092C157.899 25.6856 158.071 25.7564 158.299 25.8214C158.717 25.9406 159.023 26.0916 159.216 26.2744C159.409 26.4571 159.508 26.6868 159.512 26.9635C159.516 27.2711 159.403 27.5144 159.173 27.6936C158.943 27.8711 158.631 27.9628 158.237 27.9685C157.964 27.9725 157.714 27.9265 157.488 27.8305C157.262 27.7329 157.088 27.5979 156.967 27.4255C156.847 27.2531 156.786 27.0522 156.782 26.8227L157.517 26.8119C157.523 27.2042 157.76 27.3968 158.229 27.39C158.403 27.3874 158.538 27.3505 158.635 27.2791C158.732 27.206 158.779 27.106 158.777 26.9791ZM164.461 24.2736L164.496 26.6147C164.501 27.0037 164.384 27.313 164.143 27.5428C163.904 27.7726 163.573 27.8905 163.152 27.8967C162.737 27.9028 162.406 27.7977 162.158 27.5816C161.911 27.3655 161.782 27.0654 161.772 26.6814L161.737 24.3135L162.469 24.3028L162.504 26.6487C162.507 26.8814 162.565 27.0507 162.677 27.1565C162.791 27.2606 162.946 27.3113 163.143 27.3084C163.555 27.3024 163.761 27.0828 163.761 26.6499L163.727 24.2844L164.461 24.2736ZM169.687 26.5681C169.665 26.951 169.527 27.2541 169.275 27.4776C169.024 27.701 168.691 27.8157 168.274 27.8218C167.818 27.8285 167.457 27.6807 167.191 27.3786C166.926 27.0748 166.79 26.6552 166.782 26.1198L166.779 25.9025C166.774 25.5608 166.829 25.2588 166.946 24.9967C167.063 24.7345 167.232 24.5327 167.452 24.3911C167.675 24.2478 167.934 24.174 168.231 24.1697C168.641 24.1637 168.973 24.2687 169.226 24.4848C169.48 24.7008 169.63 25.0071 169.675 25.4036L168.942 25.4143C168.921 25.1851 168.854 25.0201 168.742 24.9192C168.631 24.8166 168.464 24.767 168.239 24.7702C167.995 24.7738 167.813 24.8644 167.694 25.0419C167.576 25.2178 167.518 25.4897 167.52 25.8575L167.524 26.126C167.53 26.5101 167.592 26.79 167.71 26.9657C167.83 27.1414 168.015 27.2274 168.265 27.2237C168.492 27.2204 168.659 27.1667 168.768 27.0626C168.879 26.9568 168.941 26.7955 168.954 26.5788L169.687 26.5681ZM174.758 26.494C174.736 26.8768 174.598 27.18 174.346 27.4034C174.095 27.6268 173.762 27.7416 173.345 27.7477C172.889 27.7543 172.528 27.6066 172.262 27.3045C171.997 27.0007 171.861 26.5811 171.853 26.0457L171.85 25.8284C171.845 25.4867 171.9 25.1847 172.017 24.9226C172.134 24.6604 172.302 24.4585 172.523 24.3169C172.746 24.1737 173.005 24.0999 173.301 24.0956C173.712 24.0896 174.044 24.1946 174.297 24.4107C174.551 24.6267 174.701 24.933 174.745 25.3295L174.013 25.3402C173.992 25.111 173.925 24.9459 173.813 24.845C173.702 24.7425 173.535 24.6928 173.31 24.6961C173.066 24.6997 172.884 24.7902 172.765 24.9678C172.647 25.1437 172.589 25.4155 172.591 25.7834L172.595 26.0519C172.601 26.436 172.663 26.7159 172.781 26.8916C172.901 27.0673 173.086 27.1533 173.336 27.1496C173.563 27.1463 173.73 27.0926 173.839 26.9884C173.95 26.8826 174.012 26.7214 174.025 26.5047L174.758 26.494ZM179.172 26.073L177.765 26.0935L177.779 27.0456L179.43 27.0215L179.438 27.6098L177.056 27.6446L177.004 24.0903L179.381 24.0555L179.39 24.6487L177.745 24.6728L177.757 25.5199L179.163 25.4993L179.172 26.073ZM183.497 26.6177C183.495 26.4794 183.445 26.3743 183.346 26.3025C183.247 26.2291 183.07 26.1535 182.815 26.0759C182.56 25.9966 182.358 25.9182 182.209 25.8406C181.802 25.6284 181.596 25.3376 181.59 24.9682C181.588 24.7761 181.639 24.6045 181.744 24.4532C181.851 24.3002 182.005 24.18 182.205 24.0924C182.407 24.0048 182.635 23.9592 182.887 23.9555C183.141 23.9518 183.368 23.9948 183.567 24.0847C183.767 24.1729 183.923 24.3001 184.035 24.4661C184.148 24.6321 184.206 24.8217 184.209 25.0349L183.477 25.0456C183.474 24.8829 183.421 24.7575 183.317 24.6695C183.213 24.5798 183.069 24.5364 182.883 24.5391C182.704 24.5417 182.566 24.582 182.467 24.6599C182.369 24.7362 182.321 24.8362 182.323 24.9599C182.324 25.0755 182.384 25.1714 182.5 25.2479C182.619 25.3243 182.791 25.395 183.019 25.46C183.437 25.5793 183.743 25.7302 183.936 25.913C184.129 26.0957 184.228 26.3254 184.232 26.6021C184.236 26.9097 184.123 27.1531 183.893 27.3322C183.663 27.5098 183.351 27.6014 182.957 27.6072C182.684 27.6112 182.434 27.5652 182.208 27.4692C181.982 27.3716 181.808 27.2366 181.687 27.0642C181.567 26.8917 181.506 26.6908 181.502 26.4613L182.237 26.4506C182.243 26.8428 182.48 27.0355 182.949 27.0286C183.123 27.0261 183.258 26.9891 183.355 26.9177C183.452 26.8447 183.499 26.7447 183.497 26.6177ZM188.373 26.5465C188.371 26.4081 188.32 26.3031 188.222 26.2312C188.123 26.1578 187.946 26.0823 187.691 26.0046C187.436 25.9253 187.234 25.8469 187.084 25.7693C186.678 25.5571 186.471 25.2663 186.466 24.8969C186.463 24.7049 186.514 24.5332 186.62 24.3819C186.727 24.229 186.88 24.1087 187.081 24.0211C187.283 23.9335 187.51 23.8879 187.762 23.8842C188.016 23.8805 188.243 23.9236 188.443 24.0134C188.643 24.1016 188.799 24.2288 188.91 24.3948C189.023 24.5608 189.081 24.7504 189.085 24.9636L188.352 24.9743C188.35 24.8116 188.297 24.6862 188.193 24.5982C188.089 24.5086 187.944 24.4651 187.759 24.4678C187.58 24.4704 187.441 24.5107 187.343 24.5886C187.245 24.665 187.197 24.765 187.198 24.8886C187.2 25.0042 187.259 25.1002 187.376 25.1766C187.494 25.253 187.667 25.3237 187.894 25.3888C188.313 25.508 188.619 25.659 188.812 25.8417C189.005 26.0245 189.103 26.2542 189.107 26.5308C189.112 26.8384 188.999 27.0818 188.769 27.261C188.539 27.4385 188.227 27.5301 187.833 27.5359C187.56 27.5399 187.31 27.4939 187.084 27.3979C186.858 27.3003 186.684 27.1653 186.563 26.9929C186.443 26.8205 186.381 26.6195 186.378 26.39L187.113 26.3793C187.119 26.7715 187.356 26.9642 187.824 26.9573C187.999 26.9548 188.134 26.9178 188.231 26.8464C188.327 26.7734 188.375 26.6734 188.373 26.5465ZM193.536 25.9509L192.13 25.9715L192.151 27.4239L191.419 27.4346L191.367 23.8803L193.681 23.8465L193.69 24.4397L192.108 24.4628L192.121 25.3807L193.528 25.3601L193.536 25.9509ZM198.596 23.7747L198.63 26.1157C198.636 26.5047 198.518 26.814 198.277 27.0438C198.038 27.2736 197.708 27.3915 197.286 27.3977C196.871 27.4038 196.54 27.2987 196.293 27.0826C196.046 26.8665 195.917 26.5664 195.906 26.1824L195.872 23.8145L196.604 23.8038L196.638 26.1497C196.642 26.3824 196.699 26.5517 196.812 26.6575C196.926 26.7616 197.081 26.8123 197.278 26.8094C197.69 26.8034 197.896 26.5839 197.896 26.1509L197.861 23.7854L198.596 23.7747ZM201.772 26.6949L203.327 26.6721L203.336 27.2604L201.048 27.2939L200.996 23.7396L201.729 23.7289L201.772 26.6949ZM206.213 26.1269L205.627 26.1355L205.508 23.6736L206.26 23.6626L206.213 26.1269ZM205.926 26.5169C206.045 26.5152 206.14 26.5488 206.213 26.6177C206.287 26.6866 206.325 26.7756 206.327 26.8846C206.328 26.9921 206.293 27.0813 206.221 27.1523C206.15 27.2234 206.055 27.2597 205.937 27.2615C205.819 27.2632 205.724 27.2296 205.649 27.1607C205.577 27.0918 205.54 27.0036 205.538 26.8962C205.537 26.7888 205.571 26.6995 205.642 26.6285C205.714 26.5558 205.809 26.5186 205.926 26.5169Z" fill="black" fill-opacity="0.49"/>
<path d="M119.375 42.6946C119.373 42.5345 119.326 42.4082 119.235 42.3157C119.146 42.2213 118.994 42.1357 118.78 42.0587C118.566 41.9817 118.381 41.9053 118.226 41.8295C118.071 41.7517 117.936 41.6628 117.824 41.5629C117.713 41.461 117.625 41.3411 117.561 41.2034C117.498 41.0656 117.465 40.901 117.462 40.7096C117.458 40.3796 117.559 40.1076 117.767 39.8936C117.975 39.6796 118.253 39.5525 118.602 39.5122L118.593 38.8853L119.062 38.8785L119.071 39.5141C119.418 39.5579 119.69 39.6985 119.889 39.9358C120.088 40.1712 120.19 40.4793 120.195 40.8601L119.349 40.8725C119.345 40.6382 119.294 40.4641 119.195 40.3503C119.097 40.2345 118.968 40.1778 118.805 40.1802C118.645 40.1825 118.522 40.2302 118.435 40.3233C118.349 40.4144 118.307 40.5401 118.309 40.7002C118.311 40.8486 118.356 40.9671 118.443 41.0557C118.53 41.1443 118.691 41.2337 118.925 41.3241C119.16 41.4144 119.354 41.5004 119.506 41.5822C119.657 41.662 119.786 41.7539 119.891 41.8579C119.996 41.9599 120.076 42.0778 120.133 42.2118C120.19 42.3438 120.219 42.4986 120.222 42.6764C120.227 43.0084 120.127 43.2794 119.923 43.4894C119.719 43.6994 119.436 43.8257 119.073 43.8681L119.082 44.451L118.616 44.4578L118.608 43.8778C118.207 43.8407 117.894 43.7037 117.67 43.4667C117.448 43.2277 117.333 42.9081 117.328 42.5077L118.174 42.4953C118.178 42.7277 118.235 42.9056 118.346 43.029C118.459 43.1504 118.619 43.2096 118.826 43.2066C118.998 43.2041 119.133 43.1572 119.231 43.0659C119.33 42.9726 119.378 42.8489 119.375 42.6946ZM129.471 41.9053C129.48 42.4951 129.364 42.948 129.125 43.2641C128.885 43.5801 128.53 43.7416 128.059 43.7484C127.595 43.7552 127.237 43.6071 126.986 43.3041C126.736 43.0011 126.603 42.5635 126.589 41.9914L126.578 41.2063C126.569 40.6107 126.686 40.1568 126.927 39.8446C127.171 39.5325 127.525 39.373 127.99 39.3662C128.454 39.3594 128.812 39.5075 129.063 39.8105C129.313 40.1116 129.445 40.5481 129.46 41.1203L129.471 41.9053ZM128.612 41.0565C128.607 40.703 128.554 40.4469 128.454 40.2882C128.356 40.1275 128.205 40.0487 128 40.0517C127.8 40.0546 127.654 40.1339 127.561 40.2895C127.469 40.4432 127.423 40.6832 127.422 41.0094L127.437 42.0464C127.442 42.394 127.493 42.6521 127.589 42.8206C127.687 42.9872 127.841 43.0689 128.049 43.0659C128.256 43.0629 128.405 42.9796 128.494 42.8162C128.584 42.6528 128.628 42.404 128.627 42.07L128.612 41.0565ZM135.076 41.8234C135.084 42.4132 134.969 42.8661 134.729 43.1821C134.49 43.4982 134.135 43.6596 133.664 43.6665C133.199 43.6733 132.842 43.5252 132.591 43.2222C132.341 42.9192 132.208 42.4816 132.194 41.9095L132.183 41.1244C132.174 40.5288 132.29 40.0749 132.532 39.7627C132.775 39.4505 133.129 39.291 133.594 39.2842C134.059 39.2775 134.417 39.4256 134.667 39.7286C134.918 40.0296 135.05 40.4662 135.064 41.0383L135.076 41.8234ZM134.217 40.9745C134.212 40.6211 134.159 40.365 134.059 40.2063C133.961 40.0456 133.809 39.9667 133.604 39.9697C133.405 39.9726 133.259 40.0519 133.165 40.2076C133.074 40.3613 133.027 40.6013 133.026 40.9275L133.042 41.9645C133.047 42.3121 133.097 42.5702 133.194 42.7387C133.292 42.9053 133.445 42.987 133.654 42.984C133.861 42.9809 134.009 42.8977 134.099 42.7343C134.188 42.5708 134.232 42.3221 134.231 41.9881L134.217 40.9745ZM140.681 41.7415C140.689 42.3313 140.574 42.7842 140.334 43.1002C140.095 43.4162 139.74 43.5777 139.269 43.5846C138.804 43.5914 138.446 43.4433 138.196 43.1402C137.945 42.8372 137.813 42.3997 137.799 41.8276L137.787 41.0425C137.779 40.4468 137.895 39.9929 138.137 39.6808C138.38 39.3686 138.734 39.2091 139.199 39.2023C139.664 39.1955 140.021 39.3436 140.272 39.6466C140.522 39.9477 140.655 40.3843 140.669 40.9564L140.681 41.7415ZM139.821 40.8926C139.816 40.5391 139.764 40.283 139.664 40.1243C139.566 39.9636 139.414 39.8848 139.209 39.8878C139.01 39.8907 138.863 39.97 138.77 40.1257C138.679 40.2794 138.632 40.5193 138.631 40.8456L138.646 41.8826C138.651 42.2302 138.702 42.4882 138.798 42.6568C138.896 42.8233 139.05 42.9051 139.259 42.902C139.466 42.899 139.614 42.8158 139.704 42.6523C139.793 42.4889 139.837 42.2402 139.836 41.9062L139.821 40.8926ZM143.51 43.0479C143.508 42.9132 143.552 42.8031 143.64 42.7178C143.731 42.6325 143.845 42.5889 143.981 42.5869C144.12 42.5848 144.235 42.6252 144.326 42.7078C144.419 42.7905 144.466 42.8992 144.468 43.0339C144.47 43.1667 144.427 43.2757 144.338 43.361C144.25 43.4444 144.135 43.4871 143.994 43.4891C143.856 43.4912 143.741 43.4518 143.65 43.3711C143.559 43.2884 143.512 43.1807 143.51 43.0479ZM143.475 40.6488C143.473 40.514 143.517 40.404 143.605 40.3187C143.696 40.2334 143.809 40.1897 143.946 40.1877C144.085 40.1857 144.2 40.226 144.291 40.3087C144.384 40.3913 144.431 40.5 144.433 40.6347C144.435 40.7675 144.392 40.8766 144.303 40.9619C144.215 41.0452 144.1 41.0879 143.959 41.09C143.821 41.092 143.706 41.0527 143.615 40.9719C143.524 40.8893 143.477 40.7816 143.475 40.6488ZM150.138 41.6032C150.147 42.193 150.031 42.6459 149.792 42.9619C149.552 43.278 149.197 43.4394 148.727 43.4463C148.262 43.4531 147.904 43.305 147.654 43.002C147.403 42.699 147.271 42.2614 147.256 41.6893L147.245 40.9042C147.236 40.3086 147.353 39.8547 147.594 39.5425C147.838 39.2303 148.192 39.0709 148.657 39.0641C149.121 39.0573 149.479 39.2054 149.73 39.5084C149.98 39.8094 150.113 40.246 150.127 40.8181L150.138 41.6032ZM149.279 40.7544C149.274 40.4009 149.221 40.1448 149.121 39.9861C149.023 39.8254 148.872 39.7465 148.667 39.7495C148.467 39.7524 148.321 39.8317 148.228 39.9874C148.136 40.1411 148.09 40.3811 148.089 40.7073L148.104 41.7443C148.109 42.0919 148.16 42.35 148.256 42.5185C148.354 42.6851 148.508 42.7668 148.717 42.7638C148.924 42.7607 149.072 42.6775 149.161 42.5141C149.251 42.3506 149.295 42.1019 149.294 41.7679L149.279 40.7544ZM155.743 41.5213C155.752 42.1111 155.636 42.564 155.397 42.88C155.157 43.196 154.802 43.3575 154.331 43.3644C153.866 43.3712 153.509 43.2231 153.258 42.9201C153.008 42.6171 152.875 42.1795 152.861 41.6074L152.85 40.8223C152.841 40.2267 152.957 39.7728 153.199 39.4606C153.442 39.1484 153.797 38.9889 154.261 38.9821C154.726 38.9753 155.084 39.1234 155.334 39.4265C155.585 39.7275 155.717 40.1641 155.731 40.7362L155.743 41.5213ZM154.884 40.6724C154.879 40.319 154.826 40.0629 154.726 39.9041C154.628 39.7435 154.476 39.6646 154.271 39.6676C154.072 39.6705 153.926 39.7498 153.832 39.9055C153.741 40.0592 153.695 40.2991 153.693 40.6254L153.709 41.6624C153.714 42.01 153.764 42.2681 153.861 42.4366C153.959 42.6031 154.112 42.6849 154.321 42.6818C154.528 42.6788 154.676 42.5956 154.766 42.4322C154.855 42.2687 154.9 42.02 154.899 41.686L154.884 40.6724Z" fill="black" fill-opacity="0.59"/>
<path d="M115.525 6.34186L113.986 5.92974L114.261 5.04184L115.788 5.62993L115.666 3.92744L116.622 3.91345L116.55 5.65297L118.021 5.03082L118.322 5.92007L116.766 6.37743L117.81 7.66113L117.042 8.22418L116.133 6.81154L115.274 8.2012L114.49 7.68526L115.525 6.34186ZM123.655 6.223L122.116 5.81089L122.391 4.92298L123.919 5.51107L123.796 3.80858L124.753 3.79459L124.681 5.53412L126.151 4.91197L126.452 5.80122L124.896 6.25858L125.941 7.54228L125.172 8.10533L124.263 6.69269L123.404 8.08234L122.62 7.5664L123.655 6.223ZM131.786 6.10415L130.246 5.69204L130.522 4.80413L132.049 5.39222L131.926 3.68973L132.883 3.67574L132.811 5.41526L134.282 4.79312L134.583 5.68237L133.027 6.13973L134.071 7.42343L133.303 7.98648L132.393 6.57384L131.535 7.96349L130.751 7.44755L131.786 6.10415ZM139.916 5.9853L138.377 5.57318L138.652 4.68528L140.179 5.27337L140.057 3.57088L141.014 3.55689L140.941 5.29641L142.412 4.67426L142.713 5.56351L141.157 6.02088L142.201 7.30458L141.433 7.86762L140.524 6.45498L139.665 7.84464L138.881 7.3287L139.916 5.9853ZM148.047 5.86645L146.507 5.45433L146.782 4.56643L148.31 5.15452L148.187 3.45202L149.144 3.43804L149.072 5.17756L150.542 4.55541L150.843 5.44466L149.287 5.90202L150.332 7.18572L149.564 7.74877L148.654 6.33613L147.795 7.72578L147.011 7.20984L148.047 5.86645ZM156.177 5.74759L154.638 5.33548L154.913 4.44757L156.44 5.03566L156.317 3.33317L157.274 3.31918L157.202 5.05871L158.673 4.43656L158.974 5.32581L157.418 5.78317L158.462 7.06687L157.694 7.62992L156.784 6.21728L155.926 7.60693L155.142 7.09099L156.177 5.74759Z" fill="black"/>
<path d="M267.744 172.771L266.308 173.064L264.888 166.098L266.323 165.805L267.744 172.771ZM276.899 170.904L275.464 171.197L271.735 167.183L272.669 171.766L271.234 172.059L269.813 165.093L271.249 164.801L274.984 168.823L274.048 164.23L275.478 163.938L276.899 170.904ZM284.224 163.365L282.091 163.8L283.274 169.604L281.839 169.896L280.655 164.093L278.55 164.522L278.313 163.36L283.987 162.202L284.224 163.365ZM291.962 164.687L289.206 165.249L289.587 167.115L292.821 166.455L293.056 167.609L288.387 168.561L286.966 161.595L291.626 160.645L291.863 161.807L288.638 162.465L288.977 164.125L291.733 163.563L291.962 164.687ZM298.112 163.921L296.969 164.154L297.489 166.704L296.054 166.997L294.633 160.031L297.221 159.503C298.044 159.335 298.716 159.389 299.238 159.665C299.759 159.941 300.088 160.414 300.225 161.083C300.321 161.559 300.299 161.977 300.157 162.338C300.017 162.696 299.757 163.011 299.378 163.284L301.465 165.824L301.479 165.891L299.939 166.205L298.112 163.921ZM296.732 162.992L297.89 162.756C298.25 162.682 298.511 162.534 298.671 162.312C298.831 162.087 298.878 161.813 298.813 161.491C298.746 161.162 298.599 160.923 298.372 160.773C298.149 160.623 297.844 160.587 297.458 160.666L296.305 160.901L296.732 162.992ZM308.043 161.407L305.287 161.97L305.667 163.835L308.902 163.176L309.137 164.329L304.467 165.281L303.046 158.315L307.706 157.365L307.943 158.527L304.719 159.185L305.057 160.845L307.813 160.283L308.043 161.407ZM315.374 161.153C315.318 160.882 315.18 160.694 314.96 160.59C314.739 160.482 314.363 160.399 313.833 160.341C313.302 160.28 312.876 160.201 312.553 160.104C311.675 159.838 311.162 159.343 311.015 158.619C310.938 158.242 310.975 157.886 311.126 157.549C311.279 157.209 311.536 156.916 311.898 156.669C312.263 156.422 312.692 156.248 313.187 156.147C313.684 156.046 314.146 156.046 314.572 156.149C314.998 156.248 315.351 156.44 315.632 156.725C315.916 157.009 316.1 157.36 316.185 157.778L314.75 158.071C314.685 157.752 314.534 157.525 314.297 157.391C314.06 157.253 313.76 157.222 313.396 157.296C313.045 157.367 312.788 157.498 312.624 157.687C312.459 157.874 312.402 158.088 312.451 158.331C312.497 158.557 312.649 158.724 312.907 158.831C313.168 158.937 313.533 159.012 314.004 159.055C314.871 159.134 315.528 159.318 315.975 159.605C316.422 159.893 316.701 160.308 316.812 160.85C316.935 161.453 316.803 161.973 316.418 162.41C316.031 162.845 315.452 163.14 314.68 163.298C314.144 163.407 313.636 163.409 313.156 163.305C312.676 163.197 312.284 162.996 311.982 162.702C311.683 162.407 311.487 162.035 311.396 161.586L312.836 161.292C312.992 162.061 313.53 162.351 314.449 162.164C314.79 162.094 315.042 161.971 315.206 161.795C315.368 161.616 315.424 161.402 315.374 161.153ZM324.378 155.175L322.244 155.611L323.428 161.414L321.993 161.707L320.809 155.903L318.704 156.333L318.467 155.17L324.141 154.013L324.378 155.175Z" fill="black" fill-opacity="0.62"/>
<rect x="31" y="54" width="105" height="50" rx="16" fill="#37B60A" fill-opacity="0.54"/>
<path d="M40.6348 70.1429V63.0335H42.8223C43.4473 63.0335 44.0055 63.1751 44.4971 63.4583C44.9919 63.7382 45.3776 64.1386 45.6543 64.6595C45.931 65.177 46.0693 65.7662 46.0693 66.427V66.7542C46.0693 67.415 45.9326 68.0026 45.6592 68.5169C45.389 69.0312 45.0065 69.43 44.5117 69.7132C44.0169 69.9964 43.4587 70.1396 42.8369 70.1429H40.6348ZM42.0996 64.22V68.9661H42.8076C43.3805 68.9661 43.8184 68.7789 44.1211 68.4046C44.4238 68.0302 44.5785 67.4947 44.585 66.7981V66.4221C44.585 65.6995 44.4352 65.1526 44.1357 64.7815C43.8363 64.4072 43.3984 64.22 42.8223 64.22H42.0996ZM52.4705 67.5403H51.3035V70.1429H49.8387V63.0335H52.4803C53.3201 63.0335 53.9679 63.2207 54.4236 63.595C54.8794 63.9694 55.1072 64.4983 55.1072 65.1819C55.1072 65.6669 55.0014 66.0722 54.7898 66.3977C54.5815 66.72 54.2641 66.9772 53.8377 67.1692L55.3758 70.0745V70.1429H53.8035L52.4705 67.5403ZM51.3035 66.3538H52.4852C52.853 66.3538 53.1378 66.261 53.3396 66.0755C53.5415 65.8867 53.6424 65.6279 53.6424 65.2991C53.6424 64.9638 53.5464 64.7001 53.3543 64.5081C53.1655 64.316 52.8742 64.22 52.4803 64.22H51.3035V66.3538ZM62.9391 68.678H60.3707L59.8824 70.1429H58.3248L60.9713 63.0335H62.3287L64.9898 70.1429H63.4322L62.9391 68.678ZM60.7662 67.4915H62.5436L61.65 64.8304L60.7662 67.4915ZM72.6313 67.2376H69.8188V70.1429H68.3539V63.0335H72.9828V64.22H69.8188V66.0559H72.6313V67.2376ZM81.9816 64.22H79.8039V70.1429H78.3391V64.22H76.1906V63.0335H81.9816V64.22ZM85.4971 69.4495C85.4971 69.2249 85.5719 69.0426 85.7217 68.9026C85.8747 68.7626 86.0651 68.6927 86.293 68.6927C86.5241 68.6927 86.7145 68.7626 86.8643 68.9026C87.0173 69.0426 87.0938 69.2249 87.0938 69.4495C87.0938 69.6708 87.0189 69.8515 86.8691 69.9915C86.7194 70.1282 86.5273 70.1966 86.293 70.1966C86.0618 70.1966 85.8714 70.1282 85.7217 69.9915C85.5719 69.8515 85.4971 69.6708 85.4971 69.4495ZM85.4971 65.4505C85.4971 65.2259 85.5719 65.0436 85.7217 64.9036C85.8747 64.7636 86.0651 64.6936 86.293 64.6936C86.5241 64.6936 86.7145 64.7636 86.8643 64.9036C87.0173 65.0436 87.0938 65.2259 87.0938 65.4505C87.0938 65.6718 87.0189 65.8525 86.8691 65.9925C86.7194 66.1292 86.5273 66.1975 86.293 66.1975C86.0618 66.1975 85.8714 66.1292 85.7217 65.9925C85.5719 65.8525 85.4971 65.6718 85.4971 65.4505Z" fill="#545454" fill-opacity="0.65"/>
<path d="M81.8574 94.4632C81.8574 94.1963 81.7826 93.9847 81.6328 93.8285C81.4863 93.669 81.2357 93.5225 80.8809 93.389C80.526 93.2555 80.2201 93.1237 79.9629 92.9935C79.7057 92.86 79.4844 92.7087 79.2988 92.5394C79.1165 92.3669 78.9733 92.165 78.8691 91.9339C78.7682 91.7028 78.7178 91.4277 78.7178 91.1087C78.7178 90.5586 78.8936 90.1078 79.2451 89.7562C79.5967 89.4046 80.0638 89.1996 80.6465 89.141V88.096H81.4277V89.1556C82.0039 89.237 82.4548 89.4779 82.7803 89.8783C83.1058 90.2754 83.2686 90.7914 83.2686 91.4261H81.8574C81.8574 91.0355 81.776 90.7442 81.6133 90.5521C81.4538 90.3568 81.2389 90.2591 80.9688 90.2591C80.7018 90.2591 80.4951 90.3356 80.3486 90.4886C80.2021 90.6384 80.1289 90.8467 80.1289 91.1136C80.1289 91.361 80.2005 91.5596 80.3438 91.7093C80.487 91.8591 80.7523 92.0121 81.1396 92.1683C81.5303 92.3246 81.8509 92.4727 82.1016 92.6126C82.3522 92.7494 82.5638 92.9056 82.7363 93.0814C82.9089 93.2539 83.0407 93.4525 83.1318 93.6771C83.223 93.8984 83.2686 94.1572 83.2686 94.4535C83.2686 95.0068 83.096 95.4561 82.751 95.8011C82.4059 96.1462 81.9307 96.3496 81.3252 96.4115V97.3831H80.5488V96.4164C79.8815 96.3447 79.3639 96.1087 78.9961 95.7083C78.6315 95.3047 78.4492 94.7692 78.4492 94.1019H79.8604C79.8604 94.4893 79.9515 94.7871 80.1338 94.9955C80.3193 95.2005 80.5846 95.3031 80.9297 95.3031C81.2161 95.3031 81.4424 95.2282 81.6084 95.0785C81.7744 94.9255 81.8574 94.7204 81.8574 94.4632ZM94.601 93.3939C94.601 94.377 94.3975 95.1289 93.9906 95.6497C93.5837 96.1706 92.988 96.431 92.2035 96.431C91.4288 96.431 90.8363 96.1755 90.4262 95.6644C90.016 95.1533 89.8061 94.4209 89.7963 93.4671V92.1585C89.7963 91.1657 90.0014 90.4121 90.4115 89.8978C90.8249 89.3835 91.419 89.1263 92.1938 89.1263C92.9685 89.1263 93.5609 89.3818 93.9711 89.8929C94.3813 90.4007 94.5912 91.1315 94.601 92.0853V93.3939ZM93.1898 91.9583C93.1898 91.3692 93.1085 90.9411 92.9457 90.6742C92.7862 90.404 92.5355 90.2689 92.1938 90.2689C91.8617 90.2689 91.616 90.3975 91.4564 90.6546C91.3002 90.9085 91.2172 91.3073 91.2074 91.8509V93.5794C91.2074 94.1589 91.2855 94.5902 91.4418 94.8734C91.6013 95.1533 91.8552 95.2933 92.2035 95.2933C92.5486 95.2933 92.7976 95.1582 92.9506 94.888C93.1036 94.6178 93.1833 94.2044 93.1898 93.6478V91.9583ZM101.893 93.3939C101.893 94.377 101.69 95.1289 101.283 95.6497C100.876 96.1706 100.28 96.431 99.4957 96.431C98.721 96.431 98.1285 96.1755 97.7184 95.6644C97.3082 95.1533 97.0982 94.4209 97.0885 93.4671V92.1585C97.0885 91.1657 97.2936 90.4121 97.7037 89.8978C98.1171 89.3835 98.7112 89.1263 99.4859 89.1263C100.261 89.1263 100.853 89.3818 101.263 89.8929C101.673 90.4007 101.883 91.1315 101.893 92.0853V93.3939ZM100.482 91.9583C100.482 91.3692 100.401 90.9411 100.238 90.6742C100.078 90.404 99.8277 90.2689 99.4859 90.2689C99.1539 90.2689 98.9081 90.3975 98.7486 90.6546C98.5924 90.9085 98.5094 91.3073 98.4996 91.8509V93.5794C98.4996 94.1589 98.5777 94.5902 98.734 94.8734C98.8935 95.1533 99.1474 95.2933 99.4957 95.2933C99.8408 95.2933 100.09 95.1582 100.243 94.888C100.396 94.6178 100.476 94.2044 100.482 93.6478V91.9583ZM109.185 93.3939C109.185 94.377 108.982 95.1289 108.575 95.6497C108.168 96.1706 107.572 96.431 106.788 96.431C106.013 96.431 105.421 96.1755 105.011 95.6644C104.6 95.1533 104.39 94.4209 104.381 93.4671V92.1585C104.381 91.1657 104.586 90.4121 104.996 89.8978C105.409 89.3835 106.003 89.1263 106.778 89.1263C107.553 89.1263 108.145 89.3818 108.555 89.8929C108.966 90.4007 109.176 91.1315 109.185 92.0853V93.3939ZM107.774 91.9583C107.774 91.3692 107.693 90.9411 107.53 90.6742C107.371 90.404 107.12 90.2689 106.778 90.2689C106.446 90.2689 106.2 90.3975 106.041 90.6546C105.885 90.9085 105.802 91.3073 105.792 91.8509V93.5794C105.792 94.1589 105.87 94.5902 106.026 94.8734C106.186 95.1533 106.44 95.2933 106.788 95.2933C107.133 95.2933 107.382 95.1582 107.535 94.888C107.688 94.6178 107.768 94.2044 107.774 93.6478V91.9583ZM111.819 95.64C111.819 95.4154 111.894 95.2331 112.044 95.0931C112.197 94.9531 112.387 94.8831 112.615 94.8831C112.846 94.8831 113.037 94.9531 113.187 95.0931C113.34 95.2331 113.416 95.4154 113.416 95.64C113.416 95.8613 113.341 96.042 113.191 96.182C113.042 96.3187 112.85 96.3871 112.615 96.3871C112.384 96.3871 112.194 96.3187 112.044 96.182C111.894 96.042 111.819 95.8613 111.819 95.64ZM111.819 91.641C111.819 91.4164 111.894 91.2341 112.044 91.0941C112.197 90.9541 112.387 90.8841 112.615 90.8841C112.846 90.8841 113.037 90.9541 113.187 91.0941C113.34 91.2341 113.416 91.4164 113.416 91.641C113.416 91.8623 113.341 92.043 113.191 92.183C113.042 92.3197 112.85 92.388 112.615 92.388C112.384 92.388 112.194 92.3197 112.044 92.183C111.894 92.043 111.819 91.8623 111.819 91.641ZM120.85 93.3939C120.85 94.377 120.646 95.1289 120.239 95.6497C119.833 96.1706 119.237 96.431 118.452 96.431C117.678 96.431 117.085 96.1755 116.675 95.6644C116.265 95.1533 116.055 94.4209 116.045 93.4671V92.1585C116.045 91.1657 116.25 90.4121 116.66 89.8978C117.074 89.3835 117.668 89.1263 118.443 89.1263C119.217 89.1263 119.81 89.3818 120.22 89.8929C120.63 90.4007 120.84 91.1315 120.85 92.0853V93.3939ZM119.439 91.9583C119.439 91.3692 119.357 90.9411 119.195 90.6742C119.035 90.404 118.784 90.2689 118.443 90.2689C118.111 90.2689 117.865 90.3975 117.705 90.6546C117.549 90.9085 117.466 91.3073 117.456 91.8509V93.5794C117.456 94.1589 117.534 94.5902 117.691 94.8734C117.85 95.1533 118.104 95.2933 118.452 95.2933C118.797 95.2933 119.046 95.1582 119.199 94.888C119.352 94.6178 119.432 94.2044 119.439 93.6478V91.9583ZM128.142 93.3939C128.142 94.377 127.939 95.1289 127.532 95.6497C127.125 96.1706 126.529 96.431 125.745 96.431C124.97 96.431 124.377 96.1755 123.967 95.6644C123.557 95.1533 123.347 94.4209 123.337 93.4671V92.1585C123.337 91.1657 123.542 90.4121 123.953 89.8978C124.366 89.3835 124.96 89.1263 125.735 89.1263C126.51 89.1263 127.102 89.3818 127.512 89.8929C127.922 90.4007 128.132 91.1315 128.142 92.0853V93.3939ZM126.731 91.9583C126.731 91.3692 126.649 90.9411 126.487 90.6742C126.327 90.404 126.077 90.2689 125.735 90.2689C125.403 90.2689 125.157 90.3975 124.997 90.6546C124.841 90.9085 124.758 91.3073 124.748 91.8509V93.5794C124.748 94.1589 124.827 94.5902 124.983 94.8734C125.142 95.1533 125.396 95.2933 125.745 95.2933C126.09 95.2933 126.339 95.1582 126.492 94.888C126.645 94.6178 126.724 94.2044 126.731 93.6478V91.9583Z" fill="#545454" fill-opacity="0.65"/>
<rect x="31" y="78.6032" width="105" height="0.793651" fill="#F4600D" fill-opacity="0.56"/>
<path d="M56.9533 130.387C56.6467 131.09 56.1794 131.563 55.5512 131.808C54.9262 132.053 54.2207 132.038 53.4348 131.761C52.5752 131.457 52 130.93 51.7093 130.179C51.4227 129.425 51.4574 128.544 51.8136 127.534L51.9581 127.124C52.1854 126.479 52.4992 125.951 52.8996 125.54C53.3 125.129 53.7565 124.867 54.269 124.754C54.7858 124.64 55.3235 124.681 55.8823 124.878C56.6559 125.151 57.206 125.578 57.5327 126.159C57.8593 126.74 57.9274 127.418 57.737 128.193L56.3555 127.706C56.4744 127.261 56.4635 126.905 56.3229 126.638C56.1865 126.369 55.9065 126.16 55.4828 126.011C55.0223 125.848 54.6185 125.892 54.2714 126.143C53.9284 126.391 53.6315 126.861 53.3807 127.553L53.2021 128.059C52.9466 128.784 52.8689 129.352 52.9689 129.763C53.0719 130.176 53.3598 130.466 53.8326 130.632C54.2593 130.783 54.6112 130.798 54.8881 130.678C55.1692 130.557 55.3971 130.297 55.5718 129.899L56.9533 130.387ZM62.2409 133.514L65.1742 134.549L64.7829 135.658L60.4681 134.137L62.8322 127.432L64.2137 127.919L62.2409 133.514ZM70.4437 137.654L69.0622 137.167L71.4263 130.462L72.8078 130.949L70.4437 137.654ZM80.1821 137.821L77.5296 136.886L76.8964 138.682L80.0093 139.779L79.618 140.889L75.1236 139.304L77.4877 132.6L81.9729 134.181L81.5783 135.3L78.4746 134.206L77.9112 135.804L80.5636 136.739L80.1821 137.821ZM89.2759 144.294L87.8944 143.807L86.7606 138.448L85.2051 142.859L83.8236 142.372L86.1877 135.667L87.5692 136.154L88.7043 141.525L90.2631 137.104L91.64 137.59L89.2759 144.294ZM100.756 142.062L98.7021 141.338L96.7326 146.924L95.3511 146.437L97.3206 140.851L95.2944 140.136L95.689 139.017L101.15 140.943L100.756 142.062Z" fill="#686767"/>
<path d="M61.6003 253.08L59.6179 246.253L61.7186 245.643C62.3188 245.469 62.8944 245.449 63.4454 245.584C63.9986 245.715 64.4807 245.992 64.8917 246.415C65.3017 246.835 65.5989 247.362 65.7832 247.996L65.8744 248.311C66.0587 248.945 66.0912 249.548 65.972 250.118C65.856 250.687 65.5999 251.177 65.2037 251.587C64.8075 251.997 64.3113 252.29 63.7151 252.466L61.6003 253.08ZM61.3555 246.984L62.6789 251.542L63.3589 251.344C63.9091 251.185 64.2773 250.883 64.4637 250.439C64.65 249.995 64.6492 249.438 64.4612 248.767L64.3563 248.406C64.1548 247.712 63.8585 247.228 63.4674 246.955C63.0754 246.679 62.6028 246.622 62.0495 246.782L61.3555 246.984ZM74.552 246.111L71.851 246.896L72.3821 248.724L75.5519 247.804L75.8801 248.934L71.3035 250.263L69.321 243.435L73.8882 242.109L74.2191 243.249L71.0586 244.166L71.5311 245.794L74.232 245.009L74.552 246.111ZM84.8618 243.86C85.022 244.61 84.918 245.267 84.5497 245.832C84.1846 246.395 83.6019 246.793 82.8016 247.026C81.9263 247.28 81.1517 247.186 80.4777 246.745C79.806 246.299 79.3208 245.562 79.0222 244.534L78.901 244.116C78.7104 243.46 78.6581 242.848 78.7442 242.281C78.8303 241.713 79.0489 241.234 79.4 240.844C79.7533 240.45 80.2145 240.171 80.7834 240.005C81.5712 239.777 82.2671 239.803 82.871 240.086C83.475 240.368 83.9252 240.879 84.2217 241.62L82.815 242.029C82.6526 241.598 82.4365 241.315 82.1668 241.18C81.8992 241.041 81.5498 241.034 81.1184 241.159C80.6495 241.295 80.3468 241.566 80.2104 241.972C80.0762 242.373 80.1085 242.928 80.3074 243.637L80.4572 244.152C80.6714 244.89 80.939 245.397 81.2599 245.674C81.5839 245.949 81.9866 246.017 82.468 245.877C82.9025 245.751 83.1975 245.558 83.3529 245.3C83.5105 245.037 83.5446 244.693 83.4551 244.268L84.8618 243.86ZM90.9818 243.323L93.9687 242.456L94.2969 243.586L89.9032 244.862L87.9207 238.035L89.3274 237.626L90.9818 243.323ZM100.061 241.912L98.6544 242.321L96.6719 235.494L98.0786 235.085L100.061 241.912ZM110.379 238.916L108.972 239.325L104.929 235.628L106.233 240.12L104.827 240.529L102.844 233.701L104.251 233.293L108.301 236.998L106.994 232.496L108.396 232.089L110.379 238.916ZM118.313 233.404L115.612 234.189L116.143 236.017L119.313 235.097L119.641 236.227L115.064 237.556L113.082 230.729L117.649 229.402L117.98 230.542L114.819 231.459L115.292 233.087L117.993 232.302L118.313 233.404ZM123.923 234.983L121.941 228.156L124.042 227.546C124.642 227.372 125.217 227.352 125.768 227.487C126.322 227.618 126.804 227.895 127.215 228.318C127.625 228.738 127.922 229.265 128.106 229.9L128.197 230.214C128.382 230.848 128.414 231.451 128.295 232.021C128.179 232.59 127.923 233.08 127.527 233.49C127.13 233.9 126.634 234.193 126.038 234.369L123.923 234.983ZM123.678 228.887L125.002 233.445L125.682 233.247C126.232 233.088 126.6 232.786 126.787 232.342C126.973 231.898 126.972 231.341 126.784 230.67L126.679 230.309C126.478 229.615 126.181 229.131 125.79 228.859C125.398 228.583 124.926 228.525 124.372 228.686L123.678 228.887Z" fill="#686767"/>
<path d="M165 212C165 203.163 172.163 196 181 196H344C352.837 196 360 203.163 360 212V251C360 259.837 352.837 267 344 267H181C172.163 267 165 259.837 165 251V212Z" fill="#3AC609" fill-opacity="0.39"/>
<rect x="311.039" y="250.495" width="41.3636" height="13.2637" rx="6" fill="#F4600D" fill-opacity="0.63"/>
<rect x="311.539" y="250.995" width="40.3636" height="12.2637" rx="5.5" stroke="#F4600D" stroke-opacity="0.5"/>
<path d="M330.885 256.964C330.885 257.384 330.811 257.752 330.662 258.068C330.514 258.385 330.301 258.629 330.023 258.801C329.748 258.973 329.432 259.059 329.074 259.059C328.721 259.059 328.405 258.974 328.128 258.804C327.851 258.634 327.636 258.392 327.483 258.077C327.331 257.761 327.254 257.397 327.252 256.987V256.776C327.252 256.356 327.327 255.987 327.478 255.669C327.63 255.349 327.844 255.104 328.119 254.934C328.396 254.762 328.713 254.676 329.068 254.676C329.424 254.676 329.739 254.762 330.015 254.934C330.292 255.104 330.506 255.349 330.656 255.669C330.809 255.987 330.885 256.355 330.885 256.773V256.964ZM329.994 256.771C329.994 256.323 329.914 255.983 329.754 255.751C329.594 255.519 329.365 255.402 329.068 255.402C328.773 255.402 328.546 255.518 328.386 255.748C328.226 255.977 328.145 256.312 328.143 256.756V256.964C328.143 257.399 328.223 257.737 328.383 257.978C328.543 258.218 328.773 258.338 329.074 258.338C329.369 258.338 329.596 258.223 329.754 257.992C329.912 257.76 329.992 257.422 329.994 256.979V256.771ZM335.019 257.289L334.562 257.781V259H333.683V254.734H334.562V256.668L334.949 256.138L336.036 254.734H337.117L335.602 256.63L337.161 259H336.115L335.019 257.289Z" fill="black" fill-opacity="0.54"/>
<rect x="171.753" y="215.385" width="180.649" height="3.12088" rx="1" fill="#3A3737"/>
<path d="M180.656 234.566H179.567V237.527H178.834V234.566H177.76V233.973H180.656V234.566ZM184.191 236.226H183.608V237.527H182.875V233.973H184.196C184.616 233.973 184.94 234.066 185.168 234.254C185.396 234.441 185.51 234.705 185.51 235.047C185.51 235.29 185.457 235.492 185.351 235.655C185.247 235.816 185.088 235.945 184.875 236.041L185.644 237.493V237.527H184.858L184.191 236.226ZM183.608 235.633H184.199C184.383 235.633 184.525 235.587 184.626 235.494C184.727 235.399 184.777 235.27 184.777 235.106C184.777 234.938 184.729 234.806 184.633 234.71C184.539 234.614 184.393 234.566 184.196 234.566H183.608V235.633ZM189.876 236.795H188.591L188.347 237.527H187.569L188.892 233.973H189.57L190.901 237.527H190.122L189.876 236.795ZM188.789 236.202H189.678L189.231 234.871L188.789 236.202ZM195.924 237.527H195.191L193.765 235.189V237.527H193.033V233.973H193.765L195.194 236.317V233.973H195.924V237.527ZM200.207 236.595C200.207 236.457 200.158 236.351 200.06 236.277C199.962 236.203 199.787 236.124 199.533 236.043C199.279 235.96 199.078 235.879 198.93 235.799C198.526 235.581 198.324 235.287 198.324 234.918C198.324 234.726 198.378 234.555 198.485 234.405C198.594 234.254 198.75 234.136 198.952 234.051C199.155 233.966 199.383 233.924 199.635 233.924C199.889 233.924 200.115 233.97 200.314 234.063C200.513 234.154 200.666 234.284 200.775 234.451C200.886 234.619 200.941 234.809 200.941 235.023H200.209C200.209 234.86 200.158 234.734 200.055 234.644C199.953 234.553 199.809 234.507 199.623 234.507C199.444 234.507 199.305 234.546 199.206 234.622C199.106 234.697 199.057 234.796 199.057 234.92C199.057 235.036 199.114 235.132 199.23 235.211C199.347 235.289 199.519 235.362 199.745 235.43C200.162 235.556 200.465 235.711 200.656 235.897C200.846 236.082 200.941 236.313 200.941 236.59C200.941 236.898 200.825 237.139 200.592 237.315C200.36 237.489 200.046 237.576 199.652 237.576C199.379 237.576 199.13 237.527 198.905 237.427C198.681 237.326 198.509 237.189 198.39 237.015C198.273 236.841 198.214 236.639 198.214 236.409H198.949C198.949 236.802 199.184 236.998 199.652 236.998C199.827 236.998 199.962 236.963 200.06 236.893C200.158 236.821 200.207 236.722 200.207 236.595ZM205.378 236.075H203.972V237.527H203.24V233.973H205.554V234.566H203.972V235.484H205.378V236.075ZM209.917 235.987H208.511V236.939H210.162V237.527H207.779V233.973H210.157V234.566H208.511V235.413H209.917V235.987ZM213.707 236.226H213.124V237.527H212.391V233.973H213.712C214.132 233.973 214.456 234.066 214.684 234.254C214.912 234.441 215.026 234.705 215.026 235.047C215.026 235.29 214.973 235.492 214.867 235.655C214.763 235.816 214.604 235.945 214.391 236.041L215.16 237.493V237.527H214.374L213.707 236.226ZM213.124 235.633H213.715C213.898 235.633 214.041 235.587 214.142 235.494C214.243 235.399 214.293 235.27 214.293 235.106C214.293 234.938 214.245 234.806 214.149 234.71C214.055 234.614 213.909 234.566 213.712 234.566H213.124V235.633ZM222.273 236.595C222.273 236.457 222.224 236.351 222.127 236.277C222.029 236.203 221.853 236.124 221.599 236.043C221.345 235.96 221.144 235.879 220.996 235.799C220.592 235.581 220.391 235.287 220.391 234.918C220.391 234.726 220.444 234.555 220.552 234.405C220.661 234.254 220.816 234.136 221.018 234.051C221.222 233.966 221.449 233.924 221.702 233.924C221.956 233.924 222.182 233.97 222.38 234.063C222.579 234.154 222.733 234.284 222.842 234.451C222.953 234.619 223.008 234.809 223.008 235.023H222.275C222.275 234.86 222.224 234.734 222.122 234.644C222.019 234.553 221.875 234.507 221.69 234.507C221.51 234.507 221.371 234.546 221.272 234.622C221.173 234.697 221.123 234.796 221.123 234.92C221.123 235.036 221.181 235.132 221.296 235.211C221.414 235.289 221.585 235.362 221.812 235.43C222.228 235.556 222.532 235.711 222.722 235.897C222.913 236.082 223.008 236.313 223.008 236.59C223.008 236.898 222.891 237.139 222.659 237.315C222.426 237.489 222.113 237.576 221.719 237.576C221.445 237.576 221.196 237.527 220.972 237.427C220.747 237.326 220.575 237.189 220.457 237.015C220.339 236.841 220.281 236.639 220.281 236.409H221.016C221.016 236.802 221.25 236.998 221.719 236.998C221.893 236.998 222.029 236.963 222.127 236.893C222.224 236.821 222.273 236.722 222.273 236.595ZM227.996 233.973V236.314C227.996 236.703 227.874 237.011 227.63 237.237C227.388 237.463 227.056 237.576 226.634 237.576C226.219 237.576 225.889 237.466 225.645 237.247C225.401 237.027 225.277 236.725 225.272 236.341V233.973H226.004V236.319C226.004 236.552 226.059 236.722 226.17 236.829C226.282 236.935 226.437 236.988 226.634 236.988C227.046 236.988 227.255 236.771 227.261 236.339V233.973H227.996ZM233.187 236.343C233.16 236.726 233.018 237.027 232.763 237.247C232.509 237.466 232.173 237.576 231.757 237.576C231.301 237.576 230.942 237.423 230.68 237.117C230.42 236.81 230.29 236.388 230.29 235.853V235.635C230.29 235.294 230.35 234.992 230.47 234.732C230.591 234.472 230.762 234.272 230.985 234.134C231.21 233.994 231.47 233.924 231.767 233.924C232.177 233.924 232.507 234.034 232.758 234.254C233.008 234.473 233.153 234.782 233.192 235.179H232.46C232.442 234.949 232.378 234.783 232.267 234.681C232.158 234.577 231.991 234.525 231.767 234.525C231.522 234.525 231.339 234.612 231.217 234.788C231.097 234.962 231.035 235.233 231.032 235.601V235.87C231.032 236.254 231.089 236.535 231.205 236.712C231.322 236.889 231.506 236.978 231.757 236.978C231.983 236.978 232.151 236.927 232.262 236.824C232.374 236.72 232.439 236.56 232.455 236.343H233.187ZM238.259 236.343C238.231 236.726 238.09 237.027 237.834 237.247C237.58 237.466 237.245 237.576 236.828 237.576C236.373 237.576 236.014 237.423 235.752 237.117C235.491 236.81 235.361 236.388 235.361 235.853V235.635C235.361 235.294 235.421 234.992 235.542 234.732C235.662 234.472 235.834 234.272 236.057 234.134C236.281 233.994 236.542 233.924 236.838 233.924C237.248 233.924 237.579 234.034 237.829 234.254C238.08 234.473 238.225 234.782 238.264 235.179H237.531C237.513 234.949 237.449 234.783 237.339 234.681C237.229 234.577 237.063 234.525 236.838 234.525C236.594 234.525 236.411 234.612 236.289 234.788C236.168 234.962 236.106 235.233 236.103 235.601V235.87C236.103 236.254 236.161 236.535 236.277 236.712C236.394 236.889 236.578 236.978 236.828 236.978C237.055 236.978 237.223 236.927 237.334 236.824C237.446 236.72 237.51 236.56 237.527 236.343H238.259ZM242.679 235.987H241.272V236.939H242.923V237.527H240.54V233.973H242.918V234.566H241.272V235.413H242.679V235.987ZM246.996 236.595C246.996 236.457 246.947 236.351 246.849 236.277C246.752 236.203 246.576 236.124 246.322 236.043C246.068 235.96 245.867 235.879 245.719 235.799C245.315 235.581 245.113 235.287 245.113 234.918C245.113 234.726 245.167 234.555 245.274 234.405C245.384 234.254 245.539 234.136 245.741 234.051C245.944 233.966 246.172 233.924 246.424 233.924C246.678 233.924 246.905 233.97 247.103 234.063C247.302 234.154 247.455 234.284 247.564 234.451C247.675 234.619 247.731 234.809 247.731 235.023H246.998C246.998 234.86 246.947 234.734 246.844 234.644C246.742 234.553 246.598 234.507 246.412 234.507C246.233 234.507 246.094 234.546 245.995 234.622C245.895 234.697 245.846 234.796 245.846 234.92C245.846 235.036 245.904 235.132 246.019 235.211C246.136 235.289 246.308 235.362 246.534 235.43C246.951 235.556 247.254 235.711 247.445 235.897C247.635 236.082 247.731 236.313 247.731 236.59C247.731 236.898 247.614 237.139 247.381 237.315C247.149 237.489 246.835 237.576 246.441 237.576C246.168 237.576 245.919 237.527 245.694 237.427C245.47 237.326 245.298 237.189 245.179 237.015C245.062 236.841 245.003 236.639 245.003 236.409H245.738C245.738 236.802 245.973 236.998 246.441 236.998C246.616 236.998 246.752 236.963 246.849 236.893C246.947 236.821 246.996 236.722 246.996 236.595ZM251.872 236.595C251.872 236.457 251.823 236.351 251.725 236.277C251.628 236.203 251.452 236.124 251.198 236.043C250.944 235.96 250.743 235.879 250.595 235.799C250.191 235.581 249.99 235.287 249.99 234.918C249.99 234.726 250.043 234.555 250.151 234.405C250.26 234.254 250.415 234.136 250.617 234.051C250.82 233.966 251.048 233.924 251.301 233.924C251.554 233.924 251.781 233.97 251.979 234.063C252.178 234.154 252.332 234.284 252.441 234.451C252.551 234.619 252.607 234.809 252.607 235.023H251.874C251.874 234.86 251.823 234.734 251.72 234.644C251.618 234.553 251.474 234.507 251.288 234.507C251.109 234.507 250.97 234.546 250.871 234.622C250.772 234.697 250.722 234.796 250.722 234.92C250.722 235.036 250.78 235.132 250.895 235.211C251.012 235.289 251.184 235.362 251.41 235.43C251.827 235.556 252.131 235.711 252.321 235.897C252.511 236.082 252.607 236.313 252.607 236.59C252.607 236.898 252.49 237.139 252.258 237.315C252.025 237.489 251.712 237.576 251.318 237.576C251.044 237.576 250.795 237.527 250.571 237.427C250.346 237.326 250.174 237.189 250.055 237.015C249.938 236.841 249.88 236.639 249.88 236.409H250.615C250.615 236.802 250.849 236.998 251.318 236.998C251.492 236.998 251.628 236.963 251.725 236.893C251.823 236.821 251.872 236.722 251.872 236.595ZM257.043 236.075H255.637V237.527H254.905V233.973H257.219V234.566H255.637V235.484H257.043V236.075ZM262.134 233.973V236.314C262.134 236.703 262.012 237.011 261.768 237.237C261.526 237.463 261.194 237.576 260.772 237.576C260.357 237.576 260.027 237.466 259.783 237.247C259.539 237.027 259.415 236.725 259.41 236.341V233.973H260.142V236.319C260.142 236.552 260.198 236.722 260.308 236.829C260.421 236.935 260.575 236.988 260.772 236.988C261.184 236.988 261.393 236.771 261.4 236.339V233.973H262.134ZM265.267 236.939H266.823V237.527H264.535V233.973H265.267V236.939ZM269.716 236.436H269.13L269.047 233.973H269.799L269.716 236.436ZM269.423 236.822C269.542 236.822 269.637 236.857 269.709 236.927C269.782 236.997 269.819 237.086 269.819 237.195C269.819 237.303 269.782 237.392 269.709 237.462C269.637 237.532 269.542 237.567 269.423 237.567C269.306 237.567 269.211 237.532 269.138 237.462C269.066 237.392 269.03 237.303 269.03 237.195C269.03 237.088 269.066 236.999 269.138 236.929C269.211 236.858 269.306 236.822 269.423 236.822Z" fill="black" fill-opacity="0.49"/>
<path d="M184.314 259.878C184.314 259.718 184.27 259.591 184.18 259.497C184.092 259.401 183.941 259.313 183.729 259.233C183.516 259.153 183.332 259.074 183.178 258.996C183.023 258.916 182.891 258.825 182.779 258.724C182.67 258.62 182.584 258.499 182.521 258.36C182.461 258.222 182.431 258.057 182.431 257.865C182.431 257.535 182.536 257.265 182.747 257.054C182.958 256.843 183.238 256.72 183.588 256.685V256.058H184.057V256.693C184.402 256.742 184.673 256.887 184.868 257.127C185.063 257.365 185.161 257.675 185.161 258.056H184.314C184.314 257.821 184.266 257.646 184.168 257.531C184.072 257.414 183.943 257.355 183.781 257.355C183.621 257.355 183.497 257.401 183.409 257.493C183.321 257.583 183.277 257.708 183.277 257.868C183.277 258.017 183.32 258.136 183.406 258.226C183.492 258.315 183.651 258.407 183.884 258.501C184.118 258.595 184.311 258.684 184.461 258.768C184.611 258.85 184.738 258.943 184.842 259.049C184.945 259.152 185.024 259.271 185.079 259.406C185.134 259.539 185.161 259.694 185.161 259.872C185.161 260.204 185.058 260.474 184.851 260.681C184.644 260.888 184.358 261.01 183.995 261.047V261.63H183.529V261.05C183.129 261.007 182.818 260.865 182.598 260.625C182.379 260.383 182.27 260.062 182.27 259.661H183.116C183.116 259.894 183.171 260.072 183.28 260.197C183.392 260.32 183.551 260.382 183.758 260.382C183.93 260.382 184.065 260.337 184.165 260.247C184.265 260.155 184.314 260.032 184.314 259.878ZM194.421 259.236C194.421 259.826 194.299 260.277 194.054 260.59C193.81 260.902 193.453 261.059 192.982 261.059C192.517 261.059 192.162 260.905 191.916 260.599C191.67 260.292 191.544 259.853 191.538 259.28V258.495C191.538 257.899 191.661 257.447 191.907 257.139C192.155 256.83 192.511 256.676 192.976 256.676C193.441 256.676 193.797 256.829 194.043 257.136C194.289 257.44 194.415 257.879 194.421 258.451V259.236ZM193.574 258.375C193.574 258.021 193.525 257.765 193.427 257.604C193.332 257.442 193.181 257.361 192.976 257.361C192.777 257.361 192.63 257.438 192.534 257.593C192.44 257.745 192.39 257.984 192.384 258.311V259.348C192.384 259.695 192.431 259.954 192.525 260.124C192.621 260.292 192.773 260.376 192.982 260.376C193.189 260.376 193.339 260.295 193.43 260.133C193.522 259.971 193.57 259.723 193.574 259.389V258.375ZM200.026 259.236C200.026 259.826 199.904 260.277 199.66 260.59C199.416 260.902 199.058 261.059 198.587 261.059C198.123 261.059 197.767 260.905 197.521 260.599C197.275 260.292 197.149 259.853 197.143 259.28V258.495C197.143 257.899 197.266 257.447 197.512 257.139C197.76 256.83 198.117 256.676 198.582 256.676C199.046 256.676 199.402 256.829 199.648 257.136C199.894 257.44 200.02 257.879 200.026 258.451V259.236ZM199.179 258.375C199.179 258.021 199.13 257.765 199.033 257.604C198.937 257.442 198.787 257.361 198.582 257.361C198.382 257.361 198.235 257.438 198.139 257.593C198.045 257.745 197.996 257.984 197.99 258.311V259.348C197.99 259.695 198.037 259.954 198.13 260.124C198.226 260.292 198.378 260.376 198.587 260.376C198.794 260.376 198.944 260.295 199.036 260.133C199.127 259.971 199.175 259.723 199.179 259.389V258.375ZM205.631 259.236C205.631 259.826 205.509 260.277 205.265 260.59C205.021 260.902 204.663 261.059 204.193 261.059C203.728 261.059 203.372 260.905 203.126 260.599C202.88 260.292 202.754 259.853 202.748 259.28V258.495C202.748 257.899 202.871 257.447 203.118 257.139C203.366 256.83 203.722 256.676 204.187 256.676C204.652 256.676 205.007 256.829 205.253 257.136C205.499 257.44 205.625 257.879 205.631 258.451V259.236ZM204.785 258.375C204.785 258.021 204.736 257.765 204.638 257.604C204.542 257.442 204.392 257.361 204.187 257.361C203.988 257.361 203.84 257.438 203.744 257.593C203.651 257.745 203.601 257.984 203.595 258.311V259.348C203.595 259.695 203.642 259.954 203.736 260.124C203.831 260.292 203.984 260.376 204.193 260.376C204.4 260.376 204.549 260.295 204.641 260.133C204.733 259.971 204.781 259.723 204.785 259.389V258.375ZM208.442 260.584C208.442 260.449 208.487 260.34 208.576 260.256C208.668 260.172 208.782 260.13 208.919 260.13C209.058 260.13 209.172 260.172 209.262 260.256C209.354 260.34 209.4 260.449 209.4 260.584C209.4 260.717 209.355 260.825 209.265 260.909C209.175 260.991 209.06 261.032 208.919 261.032C208.78 261.032 208.666 260.991 208.576 260.909C208.487 260.825 208.442 260.717 208.442 260.584ZM208.442 258.185C208.442 258.05 208.487 257.94 208.576 257.856C208.668 257.772 208.782 257.73 208.919 257.73C209.058 257.73 209.172 257.772 209.262 257.856C209.354 257.94 209.4 258.05 209.4 258.185C209.4 258.317 209.355 258.426 209.265 258.51C209.175 258.592 209.06 258.633 208.919 258.633C208.78 258.633 208.666 258.592 208.576 258.51C208.487 258.426 208.442 258.317 208.442 258.185ZM215.09 259.236C215.09 259.826 214.968 260.277 214.724 260.59C214.48 260.902 214.122 261.059 213.651 261.059C213.187 261.059 212.831 260.905 212.585 260.599C212.339 260.292 212.213 259.853 212.207 259.28V258.495C212.207 257.899 212.33 257.447 212.576 257.139C212.824 256.83 213.181 256.676 213.646 256.676C214.11 256.676 214.466 256.829 214.712 257.136C214.958 257.44 215.084 257.879 215.09 258.451V259.236ZM214.243 258.375C214.243 258.021 214.194 257.765 214.097 257.604C214.001 257.442 213.851 257.361 213.646 257.361C213.446 257.361 213.299 257.438 213.203 257.593C213.109 257.745 213.06 257.984 213.054 258.311V259.348C213.054 259.695 213.101 259.954 213.194 260.124C213.29 260.292 213.442 260.376 213.651 260.376C213.858 260.376 214.008 260.295 214.1 260.133C214.191 259.971 214.239 259.723 214.243 259.389V258.375ZM220.695 259.236C220.695 259.826 220.573 260.277 220.329 260.59C220.085 260.902 219.727 261.059 219.257 261.059C218.792 261.059 218.436 260.905 218.19 260.599C217.944 260.292 217.818 259.853 217.812 259.28V258.495C217.812 257.899 217.935 257.447 218.182 257.139C218.43 256.83 218.786 256.676 219.251 256.676C219.716 256.676 220.071 256.829 220.317 257.136C220.563 257.44 220.689 257.879 220.695 258.451V259.236ZM219.849 258.375C219.849 258.021 219.8 257.765 219.702 257.604C219.606 257.442 219.456 257.361 219.251 257.361C219.052 257.361 218.904 257.438 218.808 257.593C218.715 257.745 218.665 257.984 218.659 258.311V259.348C218.659 259.695 218.706 259.954 218.8 260.124C218.895 260.292 219.048 260.376 219.257 260.376C219.464 260.376 219.613 260.295 219.705 260.133C219.797 259.971 219.845 259.723 219.849 259.389V258.375Z" fill="black" fill-opacity="0.59"/>
<path d="M179.327 208.325L177.794 207.89L178.082 207.006L179.601 207.617L179.503 205.913H180.46L180.363 207.651L181.842 207.05L182.13 207.944L180.568 208.378L181.593 209.677L180.817 210.229L179.928 208.803L179.049 210.18L178.273 209.653L179.327 208.325ZM187.459 208.325L185.925 207.89L186.214 207.006L187.732 207.617L187.634 205.913H188.591L188.494 207.651L189.973 207.05L190.261 207.944L188.699 208.378L189.724 209.677L188.948 210.229L188.059 208.803L187.18 210.18L186.404 209.653L187.459 208.325ZM195.59 208.325L194.057 207.89L194.345 207.006L195.863 207.617L195.766 205.913H196.723L196.625 207.651L198.105 207.05L198.393 207.944L196.83 208.378L197.856 209.677L197.079 210.229L196.19 208.803L195.312 210.18L194.535 209.653L195.59 208.325ZM203.721 208.325L202.188 207.89L202.476 207.006L203.995 207.617L203.897 205.913H204.854L204.756 207.651L206.236 207.05L206.524 207.944L204.961 208.378L205.987 209.677L205.21 210.229L204.322 208.803L203.443 210.18L202.666 209.653L203.721 208.325ZM211.852 208.325L210.319 207.89L210.607 207.006L212.126 207.617L212.028 205.913H212.985L212.888 207.651L214.367 207.05L214.655 207.944L213.093 208.378L214.118 209.677L213.342 210.229L212.453 208.803L211.574 210.18L210.798 209.653L211.852 208.325ZM219.984 208.325L218.45 207.89L218.739 207.006L220.257 207.617L220.159 205.913H221.116L221.019 207.651L222.498 207.05L222.786 207.944L221.224 208.378L222.249 209.677L221.473 210.229L220.584 208.803L219.705 210.18L218.929 209.653L219.984 208.325Z" fill="black"/>
<rect x="202.469" y="46" width="136" height="37" rx="13" transform="rotate(18.0578 202.469 46)" fill="#4FA232"/>
<path d="M205.612 57.8613L204.29 56.9729L204.837 56.2219L206.092 57.2729L206.527 55.6225L207.437 55.9191L206.806 57.5415L208.398 57.4291L208.395 58.368L206.775 58.2968L207.347 59.8495L206.438 60.1334L206.035 58.5024L204.773 59.5391L204.198 58.7971L205.612 57.8613ZM213.343 60.3818L212.02 59.4933L212.568 58.7424L213.823 59.7934L214.258 58.1429L215.168 58.4396L214.536 60.062L216.129 59.9496L216.126 60.8884L214.506 60.8173L215.078 62.37L214.169 62.6539L213.766 61.0229L212.503 62.0596L211.929 61.3175L213.343 60.3818ZM221.074 62.9022L219.751 62.0138L220.299 61.2629L221.553 62.3139L221.989 60.6634L222.899 60.9601L222.267 62.5825L223.86 62.4701L223.857 63.4089L222.236 63.3378L222.809 64.8905L221.9 65.1744L221.497 63.5434L220.234 64.5801L219.66 63.838L221.074 62.9022ZM228.805 65.4227L227.482 64.5343L228.03 63.7834L229.284 64.8344L229.72 63.1839L230.629 63.4806L229.998 65.103L231.591 64.9906L231.587 65.9294L229.967 65.8582L230.539 67.4109L229.63 67.6949L229.227 66.0638L227.965 67.1005L227.39 66.3585L228.805 65.4227ZM236.535 67.9432L235.212 67.0548L235.76 66.3038L237.015 67.3548L237.45 65.7044L238.36 66.0011L237.728 67.6235L239.321 67.5111L239.318 68.4499L237.698 68.3787L238.27 69.9314L237.361 70.2154L236.958 68.5843L235.696 69.621L235.121 68.879L236.535 67.9432ZM244.266 70.4637L242.943 69.5753L243.491 68.8243L244.746 69.8753L245.181 68.2249L246.091 68.5216L245.459 70.1439L247.052 70.0315L247.049 70.9704L245.429 70.8992L246.001 72.4519L245.092 72.7358L244.689 71.1048L243.426 72.1415L242.852 71.3995L244.266 70.4637Z" fill="black"/>
<path d="M271.906 100.33C271.989 100.076 271.983 99.8514 271.889 99.6565C271.799 99.4594 271.606 99.2425 271.31 99.0056C271.014 98.7687 270.764 98.5485 270.56 98.345C270.357 98.1384 270.194 97.9259 270.07 97.7074C269.95 97.4869 269.876 97.2506 269.849 96.9986C269.825 96.7476 269.862 96.4704 269.961 96.1671C270.131 95.6441 270.438 95.2699 270.881 95.0447C271.325 94.8194 271.832 94.7692 272.404 94.8941L272.728 93.9007L273.471 94.1428L273.143 95.1502C273.665 95.4062 274.019 95.775 274.205 96.2565C274.391 96.735 274.386 97.276 274.189 97.8795L272.847 97.4421C272.968 97.0707 272.981 96.7685 272.886 96.5354C272.795 96.3003 272.621 96.1409 272.364 96.0571C272.11 95.9744 271.89 95.983 271.703 96.0831C271.518 96.18 271.384 96.3554 271.301 96.6092C271.224 96.8444 271.231 97.0554 271.32 97.2421C271.41 97.4289 271.615 97.6566 271.935 97.9252C272.258 98.1949 272.517 98.4351 272.712 98.6458C272.908 98.8535 273.06 99.0677 273.17 99.2883C273.28 99.5058 273.344 99.7354 273.361 99.9772C273.379 100.216 273.342 100.476 273.251 100.758C273.079 101.284 272.776 101.657 272.341 101.879C271.906 102.1 271.391 102.146 270.796 102.017L270.495 102.941L269.757 102.7L270.056 101.781C269.444 101.506 269.025 101.121 268.8 100.626C268.578 100.13 268.571 99.5641 268.778 98.9296L270.119 99.367C269.999 99.7353 269.993 100.047 270.102 100.301C270.215 100.554 270.435 100.734 270.764 100.84C271.036 100.929 271.274 100.928 271.478 100.837C271.684 100.743 271.826 100.574 271.906 100.33ZM280.845 102.119C280.54 103.054 280.114 103.706 279.565 104.075C279.017 104.444 278.37 104.507 277.624 104.264C276.887 104.023 276.403 103.597 276.172 102.984C275.94 102.371 275.968 101.609 276.254 100.7L276.66 99.4554C276.967 98.5115 277.396 97.8586 277.945 97.4967C278.498 97.1359 279.142 97.0755 279.879 97.3157C280.616 97.5558 281.1 97.9824 281.331 98.5955C281.564 99.2054 281.537 99.9653 281.25 100.875L280.845 102.119ZM279.948 100.317C280.131 99.7568 280.186 99.3246 280.114 99.0204C280.046 98.7141 279.85 98.5079 279.525 98.402C279.209 98.2991 278.936 98.3451 278.704 98.5402C278.477 98.7331 278.274 99.0865 278.097 99.6004L277.561 101.244C277.381 101.795 277.322 102.229 277.383 102.547C277.447 102.862 277.645 103.074 277.977 103.182C278.305 103.289 278.583 103.238 278.813 103.028C279.042 102.819 279.246 102.45 279.424 101.923L279.948 100.317ZM288.111 104.488C287.806 105.423 287.379 106.075 286.831 106.444C286.283 106.813 285.636 106.876 284.89 106.632C284.153 106.392 283.669 105.966 283.438 105.353C283.206 104.74 283.233 103.978 283.52 103.068L283.925 101.824C284.233 100.88 284.662 100.227 285.211 99.8656C285.764 99.5048 286.408 99.4444 287.145 99.6846C287.881 99.9247 288.365 100.351 288.597 100.964C288.829 101.574 288.803 102.334 288.516 103.244L288.111 104.488ZM287.214 102.686C287.397 102.126 287.452 101.694 287.38 101.389C287.312 101.083 287.116 100.877 286.791 100.771C286.475 100.668 286.201 100.714 285.97 100.909C285.743 101.102 285.54 101.455 285.362 101.969L284.827 103.613C284.647 104.164 284.588 104.598 284.648 104.915C284.713 105.231 284.911 105.443 285.242 105.551C285.57 105.658 285.849 105.607 286.078 105.397C286.308 105.188 286.511 104.819 286.69 104.292L287.214 102.686ZM295.376 106.857C295.072 107.792 294.645 108.444 294.097 108.813C293.548 109.182 292.901 109.245 292.156 109.001C291.419 108.761 290.935 108.335 290.703 107.722C290.472 107.109 290.499 106.347 290.786 105.437L291.191 104.193C291.499 103.249 291.928 102.596 292.477 102.235C293.029 101.874 293.674 101.813 294.41 102.053C295.147 102.294 295.631 102.72 295.863 103.333C296.095 103.943 296.068 104.703 295.782 105.613L295.376 106.857ZM294.48 105.055C294.662 104.495 294.718 104.062 294.646 103.758C294.578 103.452 294.381 103.246 294.056 103.14C293.741 103.037 293.467 103.083 293.236 103.278C293.009 103.471 292.806 103.824 292.628 104.338L292.092 105.982C291.913 106.532 291.853 106.967 291.914 107.284C291.979 107.6 292.177 107.812 292.508 107.92C292.836 108.027 293.115 107.975 293.344 107.766C293.573 107.557 293.777 107.188 293.956 106.661L294.48 105.055ZM297.517 109.917C297.587 109.704 297.714 109.554 297.9 109.467C298.089 109.381 298.292 109.374 298.508 109.445C298.728 109.516 298.887 109.642 298.986 109.821C299.089 110.002 299.105 110.199 299.035 110.412C298.967 110.623 298.839 110.771 298.654 110.858C298.469 110.942 298.265 110.947 298.042 110.874C297.822 110.803 297.663 110.679 297.563 110.502C297.464 110.323 297.448 110.128 297.517 109.917ZM298.757 106.115C298.826 105.902 298.954 105.752 299.14 105.665C299.329 105.579 299.531 105.572 299.748 105.643C299.968 105.714 300.127 105.84 300.226 106.019C300.328 106.2 300.344 106.397 300.275 106.61C300.206 106.821 300.079 106.969 299.893 107.056C299.708 107.14 299.505 107.145 299.282 107.072C299.062 107.001 298.902 106.877 298.802 106.7C298.703 106.521 298.688 106.326 298.757 106.115ZM307.132 110.69C306.827 111.624 306.401 112.276 305.852 112.645C305.304 113.014 304.657 113.077 303.911 112.834C303.174 112.594 302.69 112.167 302.459 111.554C302.227 110.941 302.255 110.18 302.541 109.27L302.947 108.026C303.254 107.082 303.683 106.429 304.232 106.067C304.785 105.706 305.429 105.646 306.166 105.886C306.903 106.126 307.387 106.553 307.618 107.166C307.851 107.776 307.824 108.536 307.537 109.446L307.132 110.69ZM306.235 108.887C306.418 108.327 306.473 107.895 306.401 107.591C306.333 107.285 306.137 107.078 305.812 106.972C305.496 106.87 305.223 106.916 304.991 107.111C304.764 107.304 304.561 107.657 304.384 108.171L303.848 109.814C303.668 110.365 303.609 110.799 303.67 111.117C303.734 111.433 303.932 111.644 304.264 111.752C304.592 111.859 304.87 111.808 305.099 111.599C305.329 111.389 305.533 111.021 305.711 110.494L306.235 108.887ZM314.398 113.059C314.093 113.993 313.666 114.645 313.118 115.014C312.57 115.383 311.923 115.446 311.177 115.203C310.44 114.963 309.956 114.536 309.725 113.923C309.493 113.31 309.52 112.549 309.807 111.639L310.212 110.395C310.52 109.451 310.949 108.798 311.498 108.436C312.051 108.075 312.695 108.015 313.432 108.255C314.168 108.495 314.652 108.922 314.884 109.535C315.116 110.145 315.09 110.905 314.803 111.814L314.398 113.059ZM313.501 111.256C313.684 110.696 313.739 110.264 313.667 109.96C313.599 109.653 313.402 109.447 313.078 109.341C312.762 109.238 312.488 109.284 312.257 109.48C312.03 109.672 311.827 110.026 311.649 110.54L311.114 112.183C310.934 112.734 310.875 113.168 310.935 113.486C311 113.802 311.198 114.013 311.529 114.121C311.857 114.228 312.136 114.177 312.365 113.968C312.594 113.758 312.798 113.39 312.977 112.863L313.501 111.256Z" fill="black"/>
<g filter="url(#filter0_b)">
<rect x="201.643" y="64.6633" width="126" height="1" transform="rotate(18.0578 201.643 64.6633)" fill="#F4600D"/>
</g>
<rect x="8.26538" y="156" width="134.843" height="37" rx="13" transform="rotate(12.9083 8.26538 156)" fill="#4A9431" fill-opacity="0.72"/>
<path d="M14.3756 170.876C14.4374 170.606 14.3895 170.378 14.2318 170.191C14.0749 170.002 13.7671 169.771 13.3085 169.499C12.8506 169.224 12.4951 168.975 12.242 168.754C11.5525 168.148 11.2904 167.485 11.4554 166.765C11.5412 166.39 11.7223 166.081 11.9986 165.837C12.2788 165.591 12.6346 165.43 13.0658 165.356C13.5002 165.282 13.9634 165.301 14.4552 165.414C14.9502 165.527 15.3705 165.719 15.7161 165.988C16.0625 166.254 16.3045 166.575 16.4422 166.951C16.5831 167.327 16.6059 167.723 16.5106 168.139L15.0828 167.812C15.1555 167.494 15.1119 167.226 14.952 167.005C14.7928 166.782 14.5324 166.629 14.1707 166.546C13.8217 166.466 13.5333 166.478 13.3056 166.583C13.0786 166.684 12.9374 166.856 12.8822 167.097C12.8305 167.322 12.8999 167.537 13.0903 167.741C13.2838 167.945 13.5858 168.165 13.9963 168.399C14.7526 168.83 15.2749 169.268 15.5633 169.715C15.8516 170.162 15.934 170.655 15.8103 171.194C15.6729 171.794 15.338 172.213 14.8058 172.452C14.2742 172.688 13.6245 172.717 12.8567 172.541C12.3236 172.419 11.8604 172.211 11.4668 171.917C11.0741 171.62 10.8008 171.275 10.6469 170.883C10.4963 170.491 10.4722 170.071 10.5748 169.624L12.0074 169.952C11.8321 170.717 12.2014 171.204 13.1152 171.413C13.4547 171.491 13.7353 171.484 13.9569 171.391C14.1793 171.295 14.3188 171.123 14.3756 170.876ZM21.3897 174.397L19.9619 174.069L21.55 167.14L22.9778 167.467L21.3897 174.397ZM31.9101 175.886C31.5826 176.135 31.1644 176.291 30.6555 176.355C30.1474 176.416 29.6077 176.38 29.0366 176.249C28.4369 176.112 27.94 175.861 27.5459 175.497C27.1557 175.13 26.894 174.67 26.7607 174.115C26.6305 173.561 26.6393 172.947 26.7872 172.272L26.8951 171.801C27.0537 171.11 27.3066 170.538 27.6538 170.087C28.0049 169.633 28.43 169.323 28.9289 169.157C29.4318 168.988 29.9783 168.971 30.5685 169.106C31.3903 169.295 31.9877 169.639 32.3608 170.138C32.7346 170.635 32.8785 171.267 32.7926 172.036L31.4028 171.717C31.4303 171.306 31.3556 170.983 31.1788 170.749C31.0053 170.516 30.7281 170.355 30.3473 170.268C29.8619 170.157 29.4504 170.255 29.113 170.561C28.7755 170.868 28.5226 171.381 28.3544 172.101L28.253 172.543C28.0864 173.27 28.0987 173.85 28.2896 174.285C28.4806 174.719 28.8426 174.998 29.3756 175.12C29.9119 175.243 30.3204 175.216 30.6012 175.04L30.875 173.845L29.5757 173.548L29.8167 172.496L32.5439 173.121L31.9101 175.886ZM42.0149 179.124L40.5871 178.796L38.8525 173.6L37.8076 178.159L36.3798 177.832L37.9679 170.902L39.3957 171.23L41.1329 176.437L42.18 171.868L43.6031 172.194L42.0149 179.124ZM49.9083 178.393L47.2287 177.779L47.4829 176.67L50.1624 177.284L49.9083 178.393ZM66.4456 181.241C66.2892 181.923 66.0316 182.494 65.6726 182.953C65.3137 183.411 64.8769 183.729 64.3624 183.905C63.851 184.081 63.305 184.103 62.7244 183.97C62.1501 183.838 61.6693 183.583 61.282 183.204C60.8947 182.824 60.6358 182.351 60.5054 181.783C60.3757 181.213 60.3856 180.594 60.5352 179.927L60.6137 179.584C60.7701 178.902 61.0297 178.33 61.3925 177.869C61.7592 177.405 62.1979 177.087 62.7086 176.913C63.2231 176.737 63.7692 176.715 64.3466 176.848C64.9241 176.98 65.4045 177.237 65.7879 177.619C66.1752 177.998 66.4314 178.476 66.5565 179.052C66.6854 179.626 66.6721 180.253 66.5165 180.932L66.4456 181.241ZM65.0707 180.595C65.2372 179.869 65.2337 179.287 65.06 178.85C64.8864 178.413 64.5584 178.139 64.0761 178.028C63.597 177.918 63.1845 178.021 62.8385 178.336C62.4932 178.647 62.2365 179.163 62.0682 179.882L61.9908 180.22C61.8286 180.928 61.8329 181.507 62.0036 181.956C62.1744 182.406 62.5041 182.687 62.9927 182.799C63.4718 182.909 63.8828 182.806 64.2256 182.491C64.5691 182.172 64.825 181.653 64.9933 180.933L65.0707 180.595ZM77.0671 179.863L76.0211 184.428C75.8473 185.186 75.4719 185.731 74.8948 186.063C74.321 186.396 73.6232 186.468 72.8014 186.28C71.9923 186.094 71.3988 185.733 71.0211 185.195C70.6433 184.658 70.5355 184.014 70.6976 183.263L71.7556 178.646L73.1834 178.973L72.1352 183.547C72.0312 184.001 72.0631 184.357 72.2309 184.616C72.4025 184.872 72.6803 185.045 73.0643 185.133C73.867 185.317 74.3714 184.988 74.5776 184.147L75.6345 179.535L77.0671 179.863ZM86.6982 183.288L84.5755 182.801L83.2524 188.575L81.8246 188.247L83.1477 182.474L81.0536 181.994L81.3186 180.838L86.9633 182.131L86.6982 183.288Z" fill="#4E4E4E"/>
<path d="M109.462 209.17C109.312 209.854 109.06 210.427 108.705 210.889C108.35 211.351 107.917 211.672 107.404 211.853C106.894 212.035 106.348 212.062 105.766 211.934C105.191 211.808 104.708 211.558 104.317 211.182C103.926 210.806 103.662 210.336 103.527 209.769C103.392 209.2 103.396 208.581 103.539 207.912L103.614 207.569C103.764 206.885 104.018 206.311 104.377 205.847C104.739 205.38 105.175 205.057 105.684 204.878C106.197 204.697 106.742 204.67 107.321 204.797C107.9 204.924 108.383 205.176 108.77 205.554C109.161 205.93 109.421 206.405 109.552 206.98C109.686 207.553 109.679 208.18 109.53 208.86L109.462 209.17ZM108.081 208.538C108.24 207.809 108.231 207.228 108.053 206.792C107.876 206.357 107.545 206.086 107.062 205.98C106.582 205.875 106.17 205.981 105.827 206.299C105.485 206.614 105.233 207.132 105.071 207.853L104.997 208.192C104.842 208.901 104.852 209.48 105.027 209.928C105.202 210.376 105.534 210.654 106.024 210.761C106.504 210.866 106.914 210.76 107.254 210.441C107.594 210.119 107.845 209.597 108.006 208.876L108.081 208.538ZM114.416 210.81L113.497 211.449L113.062 213.433L111.631 213.119L113.153 206.175L114.584 206.488L113.894 209.636L114.713 208.911L116.983 207.014L118.743 207.399L115.601 209.945L117.292 214.36L115.59 213.986L114.416 210.81Z" fill="#4E4E4E"/>
<g filter="url(#filter1_b)">
<rect x="9.07642" y="174.653" width="124.928" height="1" transform="rotate(12.9083 9.07642 174.653)" fill="#F4600D"/>
</g>
<g filter="url(#filter2_d)">
<rect x="76" y="72" width="209" height="160" rx="26" fill="#2D9E05"/>
</g>
<g filter="url(#filter3_d)">
<path d="M148.297 127.977V140H141.266V105.875H154.578C157.141 105.875 159.391 106.344 161.328 107.281C163.281 108.219 164.781 109.555 165.828 111.289C166.875 113.008 167.398 114.969 167.398 117.172C167.398 120.516 166.25 123.156 163.953 125.094C161.672 127.016 158.508 127.977 154.461 127.977H148.297ZM148.297 122.281H154.578C156.438 122.281 157.852 121.844 158.82 120.969C159.805 120.094 160.297 118.844 160.297 117.219C160.297 115.547 159.805 114.195 158.82 113.164C157.836 112.133 156.477 111.602 154.742 111.57H148.297V122.281ZM207.922 121.25L215.023 105.875H222.711L211.508 127.625V140H204.359V127.625L193.156 105.875H200.867L207.922 121.25ZM130.039 187.539L137.773 161.875H145.602L133.719 196H126.383L114.547 161.875H122.352L130.039 187.539ZM179.773 190.352H194.703V196H172.742V161.875H179.773V190.352ZM243.195 181.211H229.695V190.352H245.539V196H222.664V161.875H245.492V167.57H229.695V175.703H243.195V181.211Z" fill="#43E80A"/>
<path d="M148.297 127.977V126.977H147.297V127.977H148.297ZM148.297 140V141H149.297V140H148.297ZM141.266 140H140.266V141H141.266V140ZM141.266 105.875V104.875H140.266V105.875H141.266ZM161.328 107.281L160.893 108.181L160.895 108.183L161.328 107.281ZM165.828 111.289L164.972 111.806L164.974 111.809L165.828 111.289ZM163.953 125.094L164.597 125.859L164.598 125.858L163.953 125.094ZM148.297 122.281H147.297V123.281H148.297V122.281ZM158.82 120.969L158.156 120.221L158.15 120.227L158.82 120.969ZM154.742 111.57L154.76 110.57L154.751 110.57H154.742V111.57ZM148.297 111.57V110.57H147.297V111.57H148.297ZM147.297 127.977V140H149.297V127.977H147.297ZM148.297 139H141.266V141H148.297V139ZM142.266 140V105.875H140.266V140H142.266ZM141.266 106.875H154.578V104.875H141.266V106.875ZM154.578 106.875C157.018 106.875 159.114 107.321 160.893 108.181L161.764 106.381C159.667 105.367 157.263 104.875 154.578 104.875V106.875ZM160.895 108.183C162.686 109.042 164.033 110.25 164.972 111.806L166.684 110.772C165.53 108.859 163.877 107.395 161.761 106.38L160.895 108.183ZM164.974 111.809C165.917 113.357 166.398 115.134 166.398 117.172H168.398C168.398 114.803 167.833 112.659 166.682 110.769L164.974 111.809ZM166.398 117.172C166.398 120.258 165.353 122.605 163.308 124.329L164.598 125.858C167.147 123.708 168.398 120.773 168.398 117.172H166.398ZM163.309 124.329C161.263 126.052 158.356 126.977 154.461 126.977V128.977C158.659 128.977 162.08 127.979 164.597 125.859L163.309 124.329ZM154.461 126.977H148.297V128.977H154.461V126.977ZM148.297 123.281H154.578V121.281H148.297V123.281ZM154.578 123.281C156.581 123.281 158.273 122.811 159.491 121.711L158.15 120.227C157.43 120.877 156.294 121.281 154.578 121.281V123.281ZM159.485 121.716C160.731 120.608 161.297 119.057 161.297 117.219H159.297C159.297 118.63 158.878 119.579 158.156 120.221L159.485 121.716ZM161.297 117.219C161.297 115.337 160.736 113.723 159.544 112.474L158.097 113.855C158.873 114.668 159.297 115.757 159.297 117.219H161.297ZM159.544 112.474C158.336 111.209 156.7 110.605 154.76 110.57L154.724 112.57C156.253 112.598 157.336 113.057 158.097 113.855L159.544 112.474ZM154.742 110.57H148.297V112.57H154.742V110.57ZM147.297 111.57V122.281H149.297V111.57H147.297ZM207.922 121.25L207.013 121.667L207.919 123.641L208.83 121.669L207.922 121.25ZM215.023 105.875V104.875H214.384L214.116 105.456L215.023 105.875ZM222.711 105.875L223.6 106.333L224.351 104.875H222.711V105.875ZM211.508 127.625L210.619 127.167L210.508 127.383V127.625H211.508ZM211.508 140V141H212.508V140H211.508ZM204.359 140H203.359V141H204.359V140ZM204.359 127.625H205.359V127.383L205.248 127.167L204.359 127.625ZM193.156 105.875V104.875H191.516L192.267 106.333L193.156 105.875ZM200.867 105.875L201.776 105.458L201.509 104.875H200.867V105.875ZM208.83 121.669L215.931 106.294L214.116 105.456L207.014 120.831L208.83 121.669ZM215.023 106.875H222.711V104.875H215.023V106.875ZM221.822 105.417L210.619 127.167L212.397 128.083L223.6 106.333L221.822 105.417ZM210.508 127.625V140H212.508V127.625H210.508ZM211.508 139H204.359V141H211.508V139ZM205.359 140V127.625H203.359V140H205.359ZM205.248 127.167L194.045 105.417L192.267 106.333L203.47 128.083L205.248 127.167ZM193.156 106.875H200.867V104.875H193.156V106.875ZM199.958 106.292L207.013 121.667L208.831 120.833L201.776 105.458L199.958 106.292ZM130.039 187.539L129.081 187.826L130.036 191.014L130.997 187.828L130.039 187.539ZM137.773 161.875V160.875H137.03L136.816 161.586L137.773 161.875ZM145.602 161.875L146.546 162.204L147.009 160.875H145.602V161.875ZM133.719 196V197H134.429L134.663 196.329L133.719 196ZM126.383 196L125.438 196.328L125.671 197H126.383V196ZM114.547 161.875V160.875H113.142L113.602 162.203L114.547 161.875ZM122.352 161.875L123.31 161.588L123.096 160.875H122.352V161.875ZM130.997 187.828L138.731 162.164L136.816 161.586L129.082 187.251L130.997 187.828ZM137.773 162.875H145.602V160.875H137.773V162.875ZM144.657 161.546L132.774 195.671L134.663 196.329L146.546 162.204L144.657 161.546ZM133.719 195H126.383V197H133.719V195ZM127.328 195.672L115.492 161.547L113.602 162.203L125.438 196.328L127.328 195.672ZM114.547 162.875H122.352V160.875H114.547V162.875ZM121.394 162.162L129.081 187.826L130.997 187.252L123.31 161.588L121.394 162.162ZM179.773 190.352H178.773V191.352H179.773V190.352ZM194.703 190.352H195.703V189.352H194.703V190.352ZM194.703 196V197H195.703V196H194.703ZM172.742 196H171.742V197H172.742V196ZM172.742 161.875V160.875H171.742V161.875H172.742ZM179.773 161.875H180.773V160.875H179.773V161.875ZM179.773 191.352H194.703V189.352H179.773V191.352ZM193.703 190.352V196H195.703V190.352H193.703ZM194.703 195H172.742V197H194.703V195ZM173.742 196V161.875H171.742V196H173.742ZM172.742 162.875H179.773V160.875H172.742V162.875ZM178.773 161.875V190.352H180.773V161.875H178.773ZM243.195 181.211V182.211H244.195V181.211H243.195ZM229.695 181.211V180.211H228.695V181.211H229.695ZM229.695 190.352H228.695V191.352H229.695V190.352ZM245.539 190.352H246.539V189.352H245.539V190.352ZM245.539 196V197H246.539V196H245.539ZM222.664 196H221.664V197H222.664V196ZM222.664 161.875V160.875H221.664V161.875H222.664ZM245.492 161.875H246.492V160.875H245.492V161.875ZM245.492 167.57V168.57H246.492V167.57H245.492ZM229.695 167.57V166.57H228.695V167.57H229.695ZM229.695 175.703H228.695V176.703H229.695V175.703ZM243.195 175.703H244.195V174.703H243.195V175.703ZM243.195 180.211H229.695V182.211H243.195V180.211ZM228.695 181.211V190.352H230.695V181.211H228.695ZM229.695 191.352H245.539V189.352H229.695V191.352ZM244.539 190.352V196H246.539V190.352H244.539ZM245.539 195H222.664V197H245.539V195ZM223.664 196V161.875H221.664V196H223.664ZM222.664 162.875H245.492V160.875H222.664V162.875ZM244.492 161.875V167.57H246.492V161.875H244.492ZM245.492 166.57H229.695V168.57H245.492V166.57ZM228.695 167.57V175.703H230.695V167.57H228.695ZM229.695 176.703H243.195V174.703H229.695V176.703ZM242.195 175.703V181.211H244.195V175.703H242.195Z" fill="black"/>
</g>
<g filter="url(#filter4_d)">
<path d="M184.123 138.727H174.877L173.119 144H167.512L177.039 118.406H181.926L191.506 144H185.898L184.123 138.727ZM176.301 134.455H182.699L179.482 124.875L176.301 134.455Z" fill="#F4600D"/>
<path d="M184.123 138.727L185.071 138.407L184.842 137.727H184.123V138.727ZM174.877 138.727V137.727H174.156L173.928 138.41L174.877 138.727ZM173.119 144V145H173.84L174.068 144.316L173.119 144ZM167.512 144L166.575 143.651L166.072 145H167.512V144ZM177.039 118.406V117.406H176.344L176.102 118.057L177.039 118.406ZM181.926 118.406L182.862 118.056L182.619 117.406H181.926V118.406ZM191.506 144V145H192.948L192.442 143.649L191.506 144ZM185.898 144L184.951 144.319L185.18 145H185.898V144ZM176.301 134.455L175.352 134.14L174.915 135.455H176.301V134.455ZM182.699 134.455V135.455H184.09L183.647 134.137L182.699 134.455ZM179.482 124.875L180.43 124.557L179.477 121.718L178.533 124.56L179.482 124.875ZM184.123 137.727H174.877V139.727H184.123V137.727ZM173.928 138.41L172.17 143.684L174.068 144.316L175.826 139.043L173.928 138.41ZM173.119 143H167.512V145H173.119V143ZM168.449 144.349L177.976 118.755L176.102 118.057L166.575 143.651L168.449 144.349ZM177.039 119.406H181.926V117.406H177.039V119.406ZM180.989 118.757L190.569 144.351L192.442 143.649L182.862 118.056L180.989 118.757ZM191.506 143H185.898V145H191.506V143ZM186.846 143.681L185.071 138.407L183.175 139.046L184.951 144.319L186.846 143.681ZM176.301 135.455H182.699V133.455H176.301V135.455ZM183.647 134.137L180.43 124.557L178.534 125.193L181.751 134.773L183.647 134.137ZM178.533 124.56L175.352 134.14L177.25 134.77L180.431 125.19L178.533 124.56Z" fill="#386712"/>
</g>
<g filter="url(#filter5_d)">
<path d="M159.123 190.727H149.877L148.119 196H142.512L152.039 170.406H156.926L166.506 196H160.898L159.123 190.727ZM151.301 186.455H157.699L154.482 176.875L151.301 186.455Z" fill="#F4600D"/>
<path d="M159.123 190.727L160.071 190.407L159.842 189.727H159.123V190.727ZM149.877 190.727V189.727H149.156L148.928 190.41L149.877 190.727ZM148.119 196V197H148.84L149.068 196.316L148.119 196ZM142.512 196L141.575 195.651L141.072 197H142.512V196ZM152.039 170.406V169.406H151.344L151.102 170.057L152.039 170.406ZM156.926 170.406L157.862 170.056L157.619 169.406H156.926V170.406ZM166.506 196V197H167.948L167.442 195.649L166.506 196ZM160.898 196L159.951 196.319L160.18 197H160.898V196ZM151.301 186.455L150.352 186.14L149.915 187.455H151.301V186.455ZM157.699 186.455V187.455H159.09L158.647 186.137L157.699 186.455ZM154.482 176.875L155.43 176.557L154.477 173.718L153.533 176.56L154.482 176.875ZM159.123 189.727H149.877V191.727H159.123V189.727ZM148.928 190.41L147.17 195.684L149.068 196.316L150.826 191.043L148.928 190.41ZM148.119 195H142.512V197H148.119V195ZM143.449 196.349L152.976 170.755L151.102 170.057L141.575 195.651L143.449 196.349ZM152.039 171.406H156.926V169.406H152.039V171.406ZM155.989 170.757L165.569 196.351L167.442 195.649L157.862 170.056L155.989 170.757ZM166.506 195H160.898V197H166.506V195ZM161.846 195.681L160.071 190.407L158.175 191.046L159.951 196.319L161.846 195.681ZM151.301 187.455H157.699V185.455H151.301V187.455ZM158.647 186.137L155.43 176.557L153.534 177.193L156.751 186.773L158.647 186.137ZM153.533 176.56L150.352 186.14L152.25 186.77L155.431 177.19L153.533 176.56Z" fill="#386712"/>
</g>
<g filter="url(#filter6_d)">
<path d="M217.809 170.406V187.264C217.809 190.064 216.93 192.279 215.172 193.908C213.426 195.537 211.035 196.352 208 196.352C205.012 196.352 202.639 195.561 200.881 193.979C199.123 192.396 198.227 190.223 198.191 187.457V170.406H203.465V187.299C203.465 188.975 203.863 190.199 204.66 190.973C205.469 191.734 206.582 192.115 208 192.115C210.965 192.115 212.471 190.557 212.518 187.439V170.406H217.809Z" fill="#F4600D"/>
<path d="M217.809 170.406H218.809V169.406H217.809V170.406ZM215.172 193.908L214.492 193.175L214.49 193.177L215.172 193.908ZM198.191 187.457H197.191L197.191 187.47L198.191 187.457ZM198.191 170.406V169.406H197.191V170.406H198.191ZM203.465 170.406H204.465V169.406H203.465V170.406ZM204.66 190.973L203.964 191.69L203.969 191.695L203.974 191.701L204.66 190.973ZM212.518 187.439L213.517 187.454L213.518 187.447V187.439H212.518ZM212.518 170.406V169.406H211.518V170.406H212.518ZM216.809 170.406V187.264H218.809V170.406H216.809ZM216.809 187.264C216.809 189.837 216.011 191.767 214.492 193.175L215.852 194.642C217.848 192.791 218.809 190.292 218.809 187.264H216.809ZM214.49 193.177C212.975 194.59 210.853 195.352 208 195.352V197.352C211.217 197.352 213.876 196.484 215.854 194.639L214.49 193.177ZM208 195.352C205.191 195.352 203.079 194.612 201.55 193.235L200.212 194.722C202.198 196.509 204.832 197.352 208 197.352V195.352ZM201.55 193.235C200.035 191.872 199.224 189.983 199.191 187.444L197.191 187.47C197.23 190.463 198.211 192.921 200.212 194.722L201.55 193.235ZM199.191 187.457V170.406H197.191V187.457H199.191ZM198.191 171.406H203.465V169.406H198.191V171.406ZM202.465 170.406V187.299H204.465V170.406H202.465ZM202.465 187.299C202.465 189.109 202.893 190.651 203.964 191.69L205.357 190.255C204.834 189.747 204.465 188.841 204.465 187.299H202.465ZM203.974 191.701C205.016 192.682 206.4 193.115 208 193.115V191.115C206.764 191.115 205.922 190.787 205.346 190.245L203.974 191.701ZM208 193.115C209.651 193.115 211.07 192.679 212.072 191.641C213.066 190.613 213.492 189.156 213.517 187.454L211.518 187.424C211.496 188.84 211.146 189.721 210.634 190.251C210.13 190.772 209.314 191.115 208 191.115V193.115ZM213.518 187.439V170.406H211.518V187.439H213.518ZM212.518 171.406H217.809V169.406H212.518V171.406Z" fill="#386712"/>
</g>
<path d="M208 119L201.5 105H205L208 112.5L211 105H214.5L208 119Z" fill="#E06B16" stroke="#CF4D03"/>
<g filter="url(#filter7_d)">
<path d="M148.5 111.691V106C148.5 104.895 149.395 104 150.5 104H154.5C155.605 104 156.5 104.895 156.5 106V111.691C156.5 112.187 156.22 112.64 155.776 112.862C155.595 112.953 155.394 113 155.191 113H149.809C149.606 113 149.405 112.953 149.224 112.862C148.78 112.64 148.5 112.187 148.5 111.691Z" fill="#F4600D"/>
<path d="M148.5 111.691V106C148.5 104.895 149.395 104 150.5 104H154.5C155.605 104 156.5 104.895 156.5 106V111.691C156.5 112.187 156.22 112.64 155.776 112.862C155.595 112.953 155.394 113 155.191 113H149.809C149.606 113 149.405 112.953 149.224 112.862C148.78 112.64 148.5 112.187 148.5 111.691Z" stroke="#DB560C"/>
</g>
<path d="M140.648 72.5352H138.08L137.592 74H136.034L138.681 66.8906H140.038L142.699 74H141.142L140.648 72.5352ZM138.476 71.3486H140.253L139.359 68.6875L138.476 71.3486ZM152.437 71.6318C152.382 72.3968 152.098 72.999 151.587 73.4385C151.079 73.8779 150.409 74.0977 149.576 74.0977C148.664 74.0977 147.946 73.7917 147.422 73.1797C146.901 72.5645 146.641 71.7214 146.641 70.6504V70.2158C146.641 69.5322 146.761 68.93 147.002 68.4092C147.243 67.8883 147.587 67.4896 148.033 67.2129C148.482 66.9329 149.003 66.793 149.595 66.793C150.415 66.793 151.076 67.0127 151.578 67.4521C152.079 67.8916 152.369 68.5085 152.447 69.3027H150.982C150.946 68.8438 150.817 68.5117 150.596 68.3066C150.378 68.0983 150.044 67.9941 149.595 67.9941C149.107 67.9941 148.741 68.1699 148.496 68.5215C148.256 68.8698 148.132 69.4118 148.125 70.1475V70.6846C148.125 71.4528 148.241 72.0143 148.472 72.3691C148.706 72.724 149.074 72.9014 149.576 72.9014C150.028 72.9014 150.365 72.7988 150.586 72.5938C150.811 72.3854 150.94 72.0648 150.972 71.6318H152.437ZM162.58 71.6318C162.525 72.3968 162.241 72.999 161.73 73.4385C161.222 73.8779 160.552 74.0977 159.719 74.0977C158.807 74.0977 158.089 73.7917 157.565 73.1797C157.044 72.5645 156.784 71.7214 156.784 70.6504V70.2158C156.784 69.5322 156.904 68.93 157.145 68.4092C157.386 67.8883 157.73 67.4896 158.176 67.2129C158.625 66.9329 159.146 66.793 159.738 66.793C160.558 66.793 161.219 67.0127 161.721 67.4521C162.222 67.8916 162.512 68.5085 162.59 69.3027H161.125C161.089 68.8438 160.96 68.5117 160.739 68.3066C160.521 68.0983 160.187 67.9941 159.738 67.9941C159.25 67.9941 158.884 68.1699 158.639 68.5215C158.399 68.8698 158.275 69.4118 158.268 70.1475V70.6846C158.268 71.4528 158.384 72.0143 158.615 72.3691C158.849 72.724 159.217 72.9014 159.719 72.9014C160.171 72.9014 160.508 72.7988 160.729 72.5938C160.954 72.3854 161.082 72.0648 161.115 71.6318H162.58ZM172.982 70.6064C172.982 71.3063 172.858 71.9199 172.611 72.4473C172.363 72.9746 172.008 73.3815 171.546 73.668C171.087 73.9544 170.56 74.0977 169.964 74.0977C169.375 74.0977 168.849 73.9561 168.387 73.6729C167.925 73.3896 167.567 72.986 167.313 72.4619C167.059 71.9346 166.93 71.3291 166.927 70.6455V70.2939C166.927 69.5941 167.052 68.9788 167.303 68.4482C167.557 67.9144 167.913 67.5059 168.372 67.2227C168.835 66.9362 169.362 66.793 169.954 66.793C170.547 66.793 171.072 66.9362 171.531 67.2227C171.994 67.5059 172.35 67.9144 172.601 68.4482C172.855 68.9788 172.982 69.5924 172.982 70.2891V70.6064ZM171.497 70.2842C171.497 69.5387 171.364 68.9723 171.097 68.585C170.83 68.1976 170.449 68.0039 169.954 68.0039C169.463 68.0039 169.084 68.196 168.817 68.5801C168.55 68.9609 168.415 69.5208 168.411 70.2598V70.6064C168.411 71.3324 168.545 71.8955 168.812 72.2959C169.079 72.6963 169.463 72.8965 169.964 72.8965C170.456 72.8965 170.833 72.7044 171.097 72.3203C171.361 71.9329 171.494 71.3698 171.497 70.6309V70.2842ZM183.027 66.8906V71.5732C183.027 72.3512 182.783 72.9665 182.295 73.4189C181.81 73.8714 181.145 74.0977 180.302 74.0977C179.472 74.0977 178.813 73.8779 178.325 73.4385C177.837 72.999 177.588 72.3952 177.578 71.627V66.8906H179.043V71.583C179.043 72.0485 179.153 72.3887 179.375 72.6035C179.599 72.8151 179.908 72.9209 180.302 72.9209C181.126 72.9209 181.544 72.488 181.557 71.6221V66.8906H183.027ZM193.609 74H192.145L189.293 69.3223V74H187.828V66.8906H189.293L192.149 71.5781V66.8906H193.609V74ZM203.694 68.0771H201.516V74H200.051V68.0771H197.903V66.8906H203.694V68.0771Z" fill="#656161"/>
<defs>
<filter id="filter0_b" x="197.333" y="60.6633" width="128.104" height="48.0077" filterUnits="userSpaceOnUse" color-interpolation-filters="sRGB">
<feFlood flood-opacity="0" result="BackgroundImageFix"/>
<feGaussianBlur in="BackgroundImage" stdDeviation="2"/>
<feComposite in2="SourceAlpha" operator="in" result="effect1_backgroundBlur"/>
<feBlend mode="normal" in="SourceGraphic" in2="effect1_backgroundBlur" result="shape"/>
</filter>
<filter id="filter1_b" x="4.85303" y="170.653" width="129.994" height="36.8825" filterUnits="userSpaceOnUse" color-interpolation-filters="sRGB">
<feFlood flood-opacity="0" result="BackgroundImageFix"/>
<feGaussianBlur in="BackgroundImage" stdDeviation="2"/>
<feComposite in2="SourceAlpha" operator="in" result="effect1_backgroundBlur"/>
<feBlend mode="normal" in="SourceGraphic" in2="effect1_backgroundBlur" result="shape"/>
</filter>
<filter id="filter2_d" x="72" y="72" width="217" height="168" filterUnits="userSpaceOnUse" color-interpolation-filters="sRGB">
<feFlood flood-opacity="0" result="BackgroundImageFix"/>
<feColorMatrix in="SourceAlpha" type="matrix" values="0 0 0 0 0 0 0 0 0 0 0 0 0 0 0 0 0 0 127 0" result="hardAlpha"/>
<feOffset dy="4"/>
<feGaussianBlur stdDeviation="2"/>
<feComposite in2="hardAlpha" operator="out"/>
<feColorMatrix type="matrix" values="0 0 0 0 0 0 0 0 0 0 0 0 0 0 0 0 0 0 0.25 0"/>
<feBlend mode="normal" in2="BackgroundImageFix" result="effect1_dropShadow"/>
<feBlend mode="normal" in="SourceGraphic" in2="effect1_dropShadow" result="shape"/>
</filter>
<filter id="filter3_d" x="109.142" y="104.875" width="141.397" height="100.125" filterUnits="userSpaceOnUse" color-interpolation-filters="sRGB">
<feFlood flood-opacity="0" result="BackgroundImageFix"/>
<feColorMatrix in="SourceAlpha" type="matrix" values="0 0 0 0 0 0 0 0 0 0 0 0 0 0 0 0 0 0 127 0" result="hardAlpha"/>
<feOffset dy="4"/>
<feGaussianBlur stdDeviation="2"/>
<feComposite in2="hardAlpha" operator="out"/>
<feColorMatrix type="matrix" values="0 0 0 0 0 0 0 0 0 0 0 0 0 0 0 0 0 0 0.25 0"/>
<feBlend mode="normal" in2="BackgroundImageFix" result="effect1_dropShadow"/>
<feBlend mode="normal" in="SourceGraphic" in2="effect1_dropShadow" result="shape"/>
</filter>
<filter id="filter4_d" x="162.073" y="117.406" width="34.8755" height="35.5938" filterUnits="userSpaceOnUse" color-interpolation-filters="sRGB">
<feFlood flood-opacity="0" result="BackgroundImageFix"/>
<feColorMatrix in="SourceAlpha" type="matrix" values="0 0 0 0 0 0 0 0 0 0 0 0 0 0 0 0 0 0 127 0" result="hardAlpha"/>
<feOffset dy="4"/>
<feGaussianBlur stdDeviation="2"/>
<feComposite in2="hardAlpha" operator="out"/>
<feColorMatrix type="matrix" values="0 0 0 0 0 0 0 0 0 0 0 0 0 0 0 0 0 0 0.25 0"/>
<feBlend mode="normal" in2="BackgroundImageFix" result="effect1_dropShadow"/>
<feBlend mode="normal" in="SourceGraphic" in2="effect1_dropShadow" result="shape"/>
</filter>
<filter id="filter5_d" x="137.073" y="169.406" width="34.8755" height="35.5938" filterUnits="userSpaceOnUse" color-interpolation-filters="sRGB">
<feFlood flood-opacity="0" result="BackgroundImageFix"/>
<feColorMatrix in="SourceAlpha" type="matrix" values="0 0 0 0 0 0 0 0 0 0 0 0 0 0 0 0 0 0 127 0" result="hardAlpha"/>
<feOffset dy="4"/>
<feGaussianBlur stdDeviation="2"/>
<feComposite in2="hardAlpha" operator="out"/>
<feColorMatrix type="matrix" values="0 0 0 0 0 0 0 0 0 0 0 0 0 0 0 0 0 0 0.25 0"/>
<feBlend mode="normal" in2="BackgroundImageFix" result="effect1_dropShadow"/>
<feBlend mode="normal" in="SourceGraphic" in2="effect1_dropShadow" result="shape"/>
</filter>
<filter id="filter6_d" x="193.191" y="169.406" width="29.6173" height="35.9453" filterUnits="userSpaceOnUse" color-interpolation-filters="sRGB">
<feFlood flood-opacity="0" result="BackgroundImageFix"/>
<feColorMatrix in="SourceAlpha" type="matrix" values="0 0 0 0 0 0 0 0 0 0 0 0 0 0 0 0 0 0 127 0" result="hardAlpha"/>
<feOffset dy="4"/>
<feGaussianBlur stdDeviation="2"/>
<feComposite in2="hardAlpha" operator="out"/>
<feColorMatrix type="matrix" values="0 0 0 0 0 0 0 0 0 0 0 0 0 0 0 0 0 0 0.25 0"/>
<feBlend mode="normal" in2="BackgroundImageFix" result="effect1_dropShadow"/>
<feBlend mode="normal" in="SourceGraphic" in2="effect1_dropShadow" result="shape"/>
</filter>
<filter id="filter7_d" x="144" y="103.5" width="17" height="18" filterUnits="userSpaceOnUse" color-interpolation-filters="sRGB">
<feFlood flood-opacity="0" result="BackgroundImageFix"/>
<feColorMatrix in="SourceAlpha" type="matrix" values="0 0 0 0 0 0 0 0 0 0 0 0 0 0 0 0 0 0 127 0" result="hardAlpha"/>
<feOffset dy="4"/>
<feGaussianBlur stdDeviation="2"/>
<feComposite in2="hardAlpha" operator="out"/>
<feColorMatrix type="matrix" values="0 0 0 0 0 0 0 0 0 0 0 0 0 0 0 0 0 0 0.25 0"/>
<feBlend mode="normal" in2="BackgroundImageFix" result="effect1_dropShadow"/>
<feBlend mode="normal" in="SourceGraphic" in2="effect1_dropShadow" result="shape"/>
</filter>
</defs>
</svg>
